<svg height="512pt" viewBox="0 0 512 512" width="512pt" xmlns="http://www.w3.org/2000/svg"><path d="m230.519531 124.015625c-36.261719.839844-60.980469 35.484375-49.976562 68.441406-22.957031 8.761719-39.210938 30.46875-39.210938 55.863281 0 23.640626 14.089844 44.085938 34.5625 53.863282-35.824219 38.28125 2.171875 99.964844 54.652344 85.507812-1.292969 13.441406 3.738281 25.945313 12.628906 34.863282 7.933594-7.949219 12.824219-18.773438 12.824219-30.714844v-271.679688c0-11.941406-4.890625-22.765625-12.824219-30.714844-8.820312 8.851563-13.84375 21.230469-12.65625 34.570313zm0 0" fill="#ff8d8d" fill-rule="evenodd"/><path d="m436 248.320312c0-25.394531-16.253906-47.101562-39.210938-55.863281 11.003907-32.957031-13.714843-67.601562-49.976562-68.441406 1.382812-15.539063-5.652344-29.78125-17.3125-38.648437-10.648438 8.082031-17.5 20.65625-17.5 34.792968v271.679688c0 14.132812 6.851562 26.710937 17.496094 34.792968 11.742187-8.929687 18.792968-23.300781 17.289062-38.941406 52.480469 14.457032 90.480469-47.226562 54.652344-85.507812 20.472656-9.777344 34.5625-30.222656 34.5625-53.863282zm0 0" fill="#fd4a4a" fill-rule="evenodd"/><path d="m446 248.320312c0-26.070312-14.453125-49.371093-37.484375-61.515624 2.808594-15.867188-.800781-32.132813-10.367187-45.742188-9.878907-14.054688-24.625-23.261719-41.402344-26.113281-1.097656-11.410157-5.863282-22.121094-13.875-30.878907-10.503906-11.484374-25.585938-18.070312-41.375-18.070312-18.808594 0-35.453125 9.1875-45.496094 23.203125-10.039062-14.015625-26.683594-23.203125-45.492188-23.203125-15.789062 0-30.871093 6.585938-41.378906 18.070312-8.011718 8.757813-12.777344 19.46875-13.875 30.875-16.777344 2.855469-31.523437 12.0625-41.402344 26.117188-9.566406 13.605469-13.171874 29.871094-10.367187 45.742188-23.03125 12.144531-37.484375 35.445312-37.484375 61.515624 0 22.882813 11.136719 43.722657 29.714844 56.746094-10.6875 16.855469-12.296875 37.144532-4.015625 56.242188 10.15625 23.410156 32.925781 38.535156 58.011719 38.535156 1.953124 0 3.917968-.089844 5.886718-.269531 1.554688 10.394531 6.175782 20.257812 13.402344 28.210937 10.515625 11.574219 25.644531 18.214844 41.503906 18.214844 18.8125 0 35.457032-9.191406 45.496094-23.203125 10.039062 14.011719 26.683594 23.203125 45.496094 23.203125 15.859375 0 30.988281-6.640625 41.503906-18.210938 7.226562-7.957031 11.847656-17.820312 13.398438-28.214843 1.96875.179687 3.933593.269531 5.882812.269531h.007812c25.089844-.003906 47.859376-15.132812 58.011719-38.539062 8.28125-19.097657 6.671875-39.382813-4.015625-56.238282 18.578125-13.023437 29.714844-33.859375 29.714844-56.746094zm-200 143.519532c0 18.835937-15.925781 34.160156-35.496094 34.160156-10.234375 0-19.96875-4.25-26.703125-11.664062-5.023437-5.53125-7.984375-12.261719-8.640625-19.414063 18.03125-7.15625 22.6875-19.378906 26.183594-28.582031 2.9375-7.726563 4.410156-11.605469 12.78125-13.851563 5.335938-1.425781 8.5-6.910156 7.070312-12.246093-1.429687-5.335938-6.914062-8.503907-12.246093-7.070313-18.257813 4.890625-22.90625 17.128906-26.300781 26.066406-3.421876 9-5.679688 14.949219-20.023438 18.792969-.011719 0-.023438.007812-.035156.007812-.011719.003907-.023438.003907-.035156.007813-4.320313 1.191406-8.640626 1.792969-12.84375 1.792969-17.113282 0-32.683594-10.398438-39.664063-26.492188-6.675781-15.394531-3.757813-31.96875 7.816406-44.332031 2.175781-2.328125 3.113281-5.554687 2.523438-8.6875-.59375-3.132813-2.640625-5.796875-5.519531-7.167969-17.804688-8.503906-28.867188-25.6875-28.867188-44.839844 0-20.664062 12.863281-38.921874 32.773438-46.519531 5.007812-1.910156 7.617187-7.425781 5.921874-12.507812-4.152343-12.445313-2.144531-25.832031 5.515626-36.730469 8.039062-11.433594 20.839843-18.1875 35.125-18.542969 17.007812.039063 20.761718 6.828125 25.949218 16.214844 4.726563 8.554687 11.195313 20.265625 28.597656 20.265625 5.523438 0 10-4.476562 10-10s-4.476562-10-10-10c-5.152343 0-6.5-1.628906-11.09375-9.9375-5.082031-9.203125-12.4375-22.492188-33.335937-25.785156 1.035156-6.332032 3.90625-12.257813 8.429687-17.203125 6.730469-7.355469 16.433594-11.574219 26.621094-11.574219 19.570313 0 35.496094 15.324219 35.496094 34.160156v135.257813c-23.480469-2.285157-29.347656-13.019531-36.535156-26.214844-7.039063-12.914063-15.796875-28.988281-42.117188-31.773437-5.484375-.574219-10.414062 3.402343-10.996094 8.890624-.582031 5.492188 3.402344 10.417969 8.894532 11 15.882812 1.679688 20.167968 9.542969 26.652344 21.453126 2.351562 4.308593 4.855468 8.890624 8.042968 13.316406-5.269531 5.351562-13.21875 10.898437-22.238281 15.371094-4.945313 2.453124-6.96875 8.453124-4.515625 13.398437 1.746094 3.523437 5.285156 5.5625 8.964844 5.5625 1.492187 0 3.007812-.335937 4.4375-1.042969 11.203125-5.558594 20.835937-12.351562 27.753906-19.433594 7.5625 4.828126 17.648438 8.382813 31.65625 9.523438zm151.128906-98.679688c-2.875 1.375-4.925781 4.039063-5.515625 7.167969-.59375 3.132813.347657 6.359375 2.523438 8.6875 11.570312 12.363281 14.492187 28.9375 7.816406 44.332031-6.980469 16.09375-22.550781 26.496094-39.667969 26.496094h-.003906c-4.199219 0-8.519531-.601562-12.839844-1.792969-.011718-.003906-.023437-.003906-.035156-.007812-.011719-.003907-.019531-.007813-.03125-.011719-14.34375-3.84375-16.605469-9.789062-20.023438-18.789062-3.398437-8.9375-8.046874-21.175782-26.300781-26.066407-5.332031-1.433593-10.816406 1.734375-12.246093 7.070313-1.429688 5.332031 1.734374 10.816406 7.070312 12.246094 8.367188 2.242187 9.84375 6.125 12.777344 13.851562 3.5 9.203125 8.15625 21.421875 26.1875 28.582031-.65625 7.148438-3.621094 13.882813-8.644532 19.414063-6.734374 7.410156-16.464843 11.660156-26.703124 11.660156-19.570313 0-35.492188-15.324219-35.492188-34.160156v-71.585938c.019531-17.980468 9.488281-26.925781 18.351562-29.300781 11.003907-2.953125 22.535157 2.785156 29.359376 14.609375 2.761718 4.785156 8.875 6.421875 13.660156 3.660156 4.785156-2.761718 6.421875-8.875 3.660156-13.660156-11.308594-19.589844-32.144531-29.207031-51.855469-23.925781-4.832031 1.292969-9.246093 3.382812-13.175781 6.132812v-64.503906c21.027344 1.78125 27.328125 9.480469 35.042969 18.914063 6.820312 8.335937 14.554687 17.789062 31.203125 23.082031 1.007812.320312 2.027344.472656 3.03125.472656 4.238281 0 8.175781-2.714844 9.527344-6.96875 1.671874-5.265625-1.234376-10.886719-6.5-12.5625-10.988282-3.496094-15.75-9.316406-21.78125-16.6875-9.277344-11.339844-19.679688-24.050781-50.523438-26.292969v-73.058594c0-18.835937 15.921875-34.160156 35.492188-34.160156 10.191406 0 19.894531 4.214844 26.621093 11.570313 4.527344 4.949219 7.398438 10.875 8.433594 17.207031-20.902344 3.289062-28.257813 16.582031-33.339844 25.78125-4.589843 8.3125-5.9375 9.9375-11.09375 9.9375-5.519531 0-10 4.476562-10 10s4.480469 10 10 10c17.402344 0 23.875-11.710938 28.601563-20.265625 5.183594-9.386719 8.941406-16.175781 25.949218-16.214844 14.285157.355469 27.082032 7.109375 35.121094 18.546875 7.660156 10.898438 9.671875 24.285156 5.515625 36.726563-1.695312 5.082031.914063 10.597656 5.921875 12.511719 19.910156 7.59375 32.773438 25.855468 32.773438 46.515624.003906 19.152344-11.058594 36.335938-28.867188 44.839844zm0 0"/><path d="m363.703125 239.375h-.125c-5.523437 0-10 4.476562-10 9.996094 0 5.523437 4.476563 10 10 10h.125c5.523437 0 10-4.476563 10-10 0-5.519532-4.476563-9.996094-10-9.996094zm0 0"/><path d="m153.558594 276.035156c-.144532.027344-.28125.058594-.425782.089844-5.382812 1.238281-8.742187 6.605469-7.503906 11.988281 1.066406 4.628907 5.179688 7.761719 9.738282 7.761719.722656 0 1.457031-.082031 2.191406-.246094 5.371094-1.117187 8.84375-6.359375 7.765625-11.75-1.082031-5.414062-6.359375-8.925781-11.765625-7.84375zm0 0"/><path d="m256 40c5.519531 0 10-4.476562 10-10v-20c0-5.523438-4.480469-10-10-10-5.523438 0-10 4.476562-10 10v20c0 5.523438 4.476562 10 10 10zm0 0"/><path d="m134.339844 65.277344c1.851562 3.207031 5.210937 5.003906 8.667968 5.003906 1.699219 0 3.417969-.433594 4.992188-1.34375 4.78125-2.761719 6.421875-8.875 3.660156-13.660156l-10-17.320313c-2.761718-4.78125-8.878906-6.421875-13.660156-3.660156-4.785156 2.761719-6.421875 8.878906-3.660156 13.660156zm0 0"/><path d="m37.957031 141.660156 17.320313 10c1.578125.910156 3.296875 1.339844 4.992187 1.339844 3.457031 0 6.816407-1.792969 8.667969-5 2.761719-4.785156 1.125-10.902344-3.660156-13.660156l-17.320313-10c-4.785156-2.761719-10.898437-1.125-13.660156 3.660156s-1.121094 10.898438 3.660156 13.660156zm0 0"/><path d="m40 256c0-5.523438-4.476562-10-10-10h-20c-5.523438 0-10 4.476562-10 10s4.476562 10 10 10h20c5.523438 0 10-4.476562 10-10zm0 0"/><path d="m55.277344 360.339844-17.320313 10c-4.78125 2.761718-6.421875 8.878906-3.660156 13.660156 1.851563 3.207031 5.214844 5 8.671875 5 1.695312 0 3.414062-.429688 4.988281-1.339844l17.320313-10c4.785156-2.761718 6.421875-8.875 3.660156-13.660156-2.757812-4.78125-8.871094-6.421875-13.660156-3.660156zm0 0"/><path d="m148 443.0625c-4.785156-2.761719-10.898438-1.125-13.660156 3.660156l-10 17.320313c-2.761719 4.78125-1.125 10.898437 3.660156 13.660156 1.574219.910156 3.292969 1.339844 4.988281 1.339844 3.457031 0 6.820313-1.792969 8.671875-5l10-17.320313c2.761719-4.785156 1.121094-10.898437-3.660156-13.660156zm0 0"/><path d="m256 472c-5.523438 0-10 4.476562-10 10v20c0 5.523438 4.476562 10 10 10 5.519531 0 10-4.476562 10-10v-20c0-5.523438-4.480469-10-10-10zm0 0"/><path d="m377.660156 446.722656c-2.761718-4.785156-8.875-6.421875-13.660156-3.660156-4.78125 2.761719-6.421875 8.875-3.660156 13.660156l10 17.320313c1.855468 3.207031 5.214844 5 8.671875 5 1.695312 0 3.414062-.433594 4.988281-1.339844 4.785156-2.761719 6.421875-8.878906 3.660156-13.660156zm0 0"/><path d="m474.042969 370.339844-17.320313-10c-4.785156-2.761719-10.902344-1.121094-13.660156 3.660156-2.761719 4.78125-1.125 10.898438 3.660156 13.660156l17.320313 10c1.574219.910156 3.292969 1.339844 4.988281 1.339844 3.457031 0 6.816406-1.792969 8.667969-5 2.765625-4.78125 1.125-10.898438-3.65625-13.660156zm0 0"/><path d="m502 246h-20c-5.523438 0-10 4.476562-10 10s4.476562 10 10 10h20c5.523438 0 10-4.476562 10-10s-4.476562-10-10-10zm0 0"/><path d="m451.730469 153.003906c1.695312 0 3.417969-.433594 4.992187-1.34375l17.320313-10c4.78125-2.761718 6.421875-8.878906 3.65625-13.660156-2.757813-4.78125-8.875-6.421875-13.65625-3.660156l-17.320313 10c-4.785156 2.761718-6.421875 8.878906-3.660156 13.660156 1.851562 3.207031 5.210938 5.003906 8.667969 5.003906zm0 0"/><path d="m364 68.9375c1.574219.910156 3.292969 1.34375 4.992188 1.34375 3.453124 0 6.816406-1.796875 8.667968-5.003906l10-17.320313c2.761719-4.78125 1.125-10.898437-3.660156-13.660156s-10.898438-1.121094-13.660156 3.660156l-10 17.320313c-2.761719 4.785156-1.121094 10.898437 3.660156 13.660156zm0 0"/></svg>