<svg height="512pt" viewBox="0 -1 512 512" width="512pt" xmlns="http://www.w3.org/2000/svg"><path d="m484.480469 222.128906h-329.335938c-9.636719 0-17.519531 10.644532-17.519531 23.65625v230.683594c0 13.011719 7.882812 23.65625 17.519531 23.65625h329.332031c9.636719 0 17.523438-10.644531 17.523438-23.65625v-230.683594c0-13.011718-7.886719-23.65625-17.519531-23.65625zm0 0" fill="#3c9fd7"/><g fill-rule="evenodd"><path d="m137.625 352.628906h172.871094v99.996094h-172.871094zm0 0" fill="#7ffff5"/><path d="m311.65625 222.128906h30.003906c4.949219 0 8.996094-4.050781 8.996094-9v-30.003906c0-4.949219-4.046875-8.996094-8.996094-8.996094h-30.003906c-4.949219 0-9 4.046875-9 8.996094v30.003906c0 4.949219 4.050781 9 9 9zm0 0" fill="#7ffff5"/><path d="m351.5 302.628906h100v149.996094h-100zm0 0" fill="#fff"/><path d="m398.332031 302.628906h53.167969v149.996094h-53.167969zm0 0" fill="#7ffff5"/><path d="m137.625 269.628906h172.871094v49.996094h-172.871094zm0 0" fill="#7ffff5"/></g><path d="m478.34375 212.128906h-117.6875v-29.003906c0-10.476562-8.519531-18.996094-18.996094-18.996094h-4.292968v-89.796875c0-40.984375-26.917969-74.332031-60-74.332031-32.433594 0-58.921876 32.050781-59.949219 71.925781-.011719.191407-.03125.378907-.03125.570313v.835937c-.003907.335938-.019531.664063-.019531 1v37.167969c0 .136719.015624.273438.019531.40625v20.414062c0 29.449219-18.316407 54.332032-40 54.332032-21.679688 0-40-24.882813-40-54.332032v-64.789062c0-5.523438-4.476563-10-10-10-5.519531 0-10 4.480469-10 10v64.789062c0 40.984376 26.917969 74.332032 60 74.332032 33.085937 0 60-33.347656 60-74.332032v-59.046874c.433593-28.984376 18.558593-53.273438 39.980469-53.273438 21.683593 0 40 24.882812 40 54.332031v89.796875h-5.710938c-10.476562 0-19 8.519532-19 18.996094v29.003906h-259c-18.558594 0-33.65625 15.097656-33.65625 33.65625v230.6875c0 18.558594 15.097656 33.65625 33.65625 33.65625h444.6875c18.558594 0 33.65625-15.101562 33.65625-33.65625v-230.6875c0-18.558594-15.097656-33.65625-33.65625-33.65625zm-165.6875-28h28v28h-28zm179.34375 292.339844c0 7.53125-6.125 13.65625-13.65625 13.65625h-444.6875c-7.53125 0-13.65625-6.125-13.65625-13.65625v-230.683594c0-7.53125 6.125-13.65625 13.65625-13.65625h444.6875c7.53125 0 13.65625 6.125 13.65625 13.65625zm0 0"/><path d="m310.496094 342.628906h-249.996094c-5.523438 0-10 4.476563-10 10v99.996094c0 5.523438 4.476562 10 10 10h249.996094c5.523437 0 10-4.476562 10-10v-99.996094c0-5.523437-4.476563-10-10-10zm-10 49.996094h-30v-29.996094h30zm-130 0v-29.996094h30v29.996094zm-20 0h-29.996094v-29.996094h29.996094zm100 20v30h-129.996094v-30zm-30-20v-29.996094h30v29.996094zm-119.996094-29.996094v29.996094h-30v-29.996094zm-30 49.996094h30v30h-30zm199.996094 30v-30h30v30zm0 0"/><path d="m357.253906 278.621094h.472656c5.523438 0 10-4.476563 10-10 0-5.519532-4.476562-10-10-10h-.472656c-5.523437 0-10 4.480468-10 10 0 5.523437 4.476563 10 10 10zm0 0"/><path d="m386.8125 278.621094h56.9375c5.523438 0 10-4.476563 10-10 0-5.519532-4.476562-10-10-10h-56.9375c-5.523438 0-10 4.480468-10 10 0 5.523437 4.476562 10 10 10zm0 0"/><path d="m451.5 292.628906h-100c-5.519531 0-10 4.476563-10 10v149.996094c0 5.523438 4.480469 10 10 10h100c5.523438 0 10-4.476562 10-10v-149.996094c0-5.523437-4.476562-10-10-10zm-90 70h30v30h-30zm50 0h30v30h-30zm30-20h-30v-30h30zm-50-30v30h-30v-30zm-30 100h30v29.996094h-30zm50 29.996094v-29.996094h30v29.996094zm0 0"/><path d="m310.496094 259.628906h-249.996094c-5.523438 0-10 4.476563-10 10v49.996094c0 5.523438 4.476562 10 10 10h249.996094c5.523437 0 10-4.476562 10-10v-49.996094c0-5.523437-4.476563-10-10-10zm-139.996094 20h30v29.996094h-30zm-20 29.996094h-30v-29.996094h30zm70-29.996094h29.996094v29.996094h-29.996094zm-150 0h30v29.996094h-30zm229.996094 29.996094h-30v-29.996094h30zm0 0"/><path d="m127.386719 46.78125h.238281c5.523438 0 10-4.476562 10-10 0-5.519531-4.476562-10-10-10h-.238281c-5.519531 0-10 4.480469-10 10 0 5.523438 4.476562 10 10 10zm0 0"/></svg>