<svg height="512pt" viewBox="0 0 512 512" width="512pt" xmlns="http://www.w3.org/2000/svg"><path d="m424.898438 151.777344 37.390624-37.386719-64.675781-64.675781-37.390625 37.390625c-17.820312-11.023438-37.511718-19.300781-58.488281-24.253907v-34.433593c-80.914063 46.546875-135.398437 133.867187-135.398437 233.917969 0 100.046874 54.484374 187.367187 135.398437 233.914062v-47.097656c20.976563-4.953125 40.667969-13.230469 58.488281-24.253906l37.390625 37.386718 64.675781-64.671875-37.390624-37.390625c11.019531-17.820312 19.304687-37.511718 24.253906-58.488281h52.847656v-91.464844h-52.851562c-4.953126-20.980469-13.226563-40.671875-24.25-58.492187zm0 0" fill="#3c9fd7"/><path d="m140.566406 256c0-82.691406 60.859375-151.195312 140.222656-163.160156-8.085937-1.21875-16.363281-1.855469-24.789062-1.855469-91.121094 0-165.015625 73.898437-165.015625 165.015625 0 91.121094 73.898437 165.015625 165.015625 165.015625 8.425781 0 16.703125-.636719 24.789062-1.855469-79.363281-11.960937-140.222656-80.464844-140.222656-163.160156zm0 0" fill="#fff"/><path d="m421.015625 256c0-82.691406-60.863281-151.195312-140.226563-163.160156-79.363281 11.964844-140.222656 80.46875-140.222656 163.160156 0 82.695312 60.863282 151.199219 140.222656 163.160156 79.363282-11.960937 140.226563-80.464844 140.226563-163.160156zm0 0" fill="#ff8346"/><path d="m180.167969 256c0-54.144531 40.074219-99.230469 92.082031-107.109375-5.304688-.804687-10.730469-1.222656-16.25-1.222656-59.667969 0-108.332031 48.664062-108.332031 108.332031s48.664062 108.335938 108.332031 108.335938c5.519531 0 10.945312-.421876 16.25-1.222657-52.007812-7.882812-92.082031-52.964843-92.082031-107.113281zm0 0" fill="#fff"/><path d="m364.335938 256c0-54.144531-40.078126-99.230469-92.085938-107.109375-52.007812 7.878906-92.082031 52.964844-92.082031 107.109375 0 54.148438 40.074219 99.230469 92.082031 107.113281 52.007812-7.882812 92.085938-52.964843 92.085938-107.113281zm0 0" fill="#00d8ce"/><path d="m239.808594 256c0-22.425781 14.269531-41.625 34.191406-48.984375-5.613281-2.074219-11.679688-3.210937-18-3.210937-28.746094 0-52.191406 23.449218-52.191406 52.195312s23.445312 52.195312 52.191406 52.195312c6.320312 0 12.386719-1.136718 18-3.210937-19.921875-7.359375-34.191406-26.554687-34.191406-48.984375zm0 0" fill="#fff"/><path d="m308.195312 256c0-22.425781-14.269531-41.625-34.195312-48.984375-19.921875 7.359375-34.195312 26.558594-34.195312 48.984375 0 22.429688 14.273437 41.625 34.195312 48.984375 19.925781-7.359375 34.195312-26.554687 34.195312-48.984375zm0 0" fill="#fd4a4a"/><path d="m502 200.269531h-45.09375c-4.535156-16.382812-11.054688-32.101562-19.449219-46.90625l31.902344-31.902343c1.875-1.875 2.925781-4.417969 2.925781-7.070313s-1.050781-5.195313-2.925781-7.070313l-64.675781-64.675781c-3.90625-3.90625-10.238282-3.90625-14.144532 0l-31.902343 31.902344c-14.804688-8.398437-30.523438-14.917969-46.902344-19.453125v-45.09375c0-5.523438-4.476563-10-10-10h-91.46875c-5.519531 0-10 4.476562-10 10v45.09375c-16.375 4.535156-32.097656 11.054688-46.902344 19.453125l-31.902343-31.902344c-3.90625-3.90625-10.234376-3.90625-14.140626 0l-64.675781 64.675781c-1.875 1.875-2.929687 4.417969-2.929687 7.070313s1.054687 5.195313 2.929687 7.070313l31.902344 31.902343c-8.402344 14.8125-14.921875 30.535157-19.453125 46.90625h-45.09375c-5.523438 0-10 4.476563-10 10v91.464844c0 5.523437 4.476562 10 10 10h45.09375c4.535156 16.375 11.050781 32.09375 19.449219 46.90625l-31.898438 31.898437c-3.90625 3.90625-3.90625 10.238282 0 14.144532l64.675781 64.675781c1.875 1.875 4.417969 2.925781 7.070313 2.925781s5.195313-1.050781 7.070313-2.925781l31.902343-31.902344c14.8125 8.402344 30.53125 14.921875 46.902344 19.453125v45.089844c0 5.523438 4.480469 10 10 10h91.464844c5.523437 0 10-4.476562 10-10v-45.089844c16.382812-4.535156 32.101562-11.054687 46.910156-19.453125l31.898437 31.898438c3.90625 3.90625 10.238282 3.90625 14.144532 0l64.675781-64.671875c3.902344-3.90625 3.902344-10.238282 0-14.144532l-31.902344-31.898437c8.402344-14.816406 14.921875-30.539063 19.453125-46.90625h45.089844c5.523438 0 10-4.476563 10-10v-91.464844c0-5.523437-4.476562-10-10-10zm-10 91.464844h-42.851562c-4.636719 0-8.667969 3.1875-9.730469 7.703125-4.628907 19.625-12.378907 38.304688-23.023438 55.527344-2.441406 3.941406-1.847656 9.046875 1.433594 12.328125l30.316406 30.320312-50.53125 50.53125-30.316406-30.316406c-3.28125-3.28125-8.390625-3.875-12.332031-1.433594-17.203125 10.640625-35.886719 18.386719-55.527344 23.027344-4.515625 1.0625-7.703125 5.09375-7.703125 9.730469v42.847656h-71.464844v-42.847656c0-4.640625-3.191406-8.667969-7.703125-9.734375-19.628906-4.632813-38.308594-12.378907-55.527344-23.027344-3.941406-2.4375-9.046874-1.847656-12.328124 1.433594l-30.316407 30.320312-50.535156-50.535156 30.316406-30.320313c3.277344-3.277343 3.875-8.382812 1.433594-12.328124-10.644531-17.207032-18.390625-35.886719-23.023437-55.527344-1.066407-4.511719-5.097657-7.703125-9.734376-7.703125h-42.851562v-71.464844h42.851562c4.636719 0 8.667969-3.1875 9.734376-7.703125 4.632812-19.628906 12.378906-38.308594 23.023437-55.523438 2.441406-3.945312 1.847656-9.050781-1.433594-12.332031l-30.316406-30.316406 50.53125-50.535156 30.320313 30.320312c3.28125 3.28125 8.386718 3.871094 12.332031 1.433594 17.203125-10.644531 35.882812-18.390625 55.523437-23.027344 4.511719-1.0625 7.699219-5.09375 7.699219-9.730469v-42.851562h71.46875v42.851562c0 4.636719 3.1875 8.667969 7.699219 9.730469 19.644531 4.640625 38.324218 12.386719 55.527344 23.027344 3.945312 2.4375 9.046874 1.847656 12.328124-1.433594l30.320313-30.320312 50.535156 50.535156-30.320312 30.316406c-3.28125 3.28125-3.875 8.386719-1.433594 12.332031 10.640625 17.199219 18.386719 35.882813 23.023437 55.527344 1.066407 4.511719 5.097657 7.703125 9.734376 7.703125h42.851562zm0 0"/><path d="m256 80.984375c-96.503906 0-175.015625 78.511719-175.015625 175.015625s78.511719 175.015625 175.015625 175.015625 175.015625-78.511719 175.015625-175.015625-78.511719-175.015625-175.015625-175.015625zm0 330.03125c-85.476562 0-155.015625-69.539063-155.015625-155.015625s69.539063-155.015625 155.015625-155.015625 155.015625 69.539063 155.015625 155.015625-69.539063 155.015625-155.015625 155.015625zm0 0"/><path d="m256 137.667969c-65.246094 0-118.332031 53.082031-118.332031 118.332031s53.085937 118.335938 118.332031 118.335938c65.25 0 118.335938-53.085938 118.335938-118.335938 0-65.246094-53.085938-118.332031-118.335938-118.332031zm0 216.667969c-54.222656 0-98.332031-44.113282-98.332031-98.335938s44.109375-98.332031 98.332031-98.332031 98.335938 44.109375 98.335938 98.332031-44.113282 98.335938-98.335938 98.335938zm0 0"/><path d="m256 193.808594c-34.292969 0-62.191406 27.898437-62.191406 62.191406 0 33.664062 26.351562 60.964844 59.996094 62.15625.117187.003906.238281.003906.359374.003906 5.355469 0 9.796876-4.246094 9.984376-9.644531.195312-5.519531-4.121094-10.152344-9.640626-10.347656-22.824218-.808594-40.703124-19.328125-40.703124-42.167969 0-23.265625 18.929687-42.195312 42.195312-42.195312s42.195312 18.929687 42.195312 42.195312c0 3.941406-.550781 7.855469-1.640624 11.640625-1.523438 5.304687 1.542968 10.847656 6.851562 12.371094 5.304688 1.527343 10.847656-1.539063 12.371094-6.847657 1.605468-5.582031 2.417968-11.355468 2.417968-17.164062 0-34.292969-27.898437-62.191406-62.195312-62.191406zm0 0"/><path d="m302.152344 287.386719c-4.160156-3.628907-10.476563-3.199219-14.109375.960937-.484375.558594-.984375 1.109375-1.492188 1.648438-3.785156 4.019531-3.589843 10.351562.429688 14.136718 1.929687 1.816407 4.394531 2.71875 6.851562 2.71875 2.660157 0 5.316407-1.058593 7.285157-3.148437.679687-.722656 1.347656-1.457031 2-2.207031 3.628906-4.164063 3.199218-10.480469-.964844-14.109375zm0 0"/></svg>