<svg width="1071" height="160" viewBox="0 0 1071 160" fill="none" xmlns="http://www.w3.org/2000/svg">
<path d="M854 0.999805C867.782 0.0226707 882.023 15.1399 892.318 23.3191C894.83 25.3137 897.329 27.2192 900 28.9998C900 29.6598 900 30.3198 900 30.9998C900.561 31.2447 901.121 31.4896 901.699 31.742C910.013 36.2868 919.013 45.3166 923 53.9998C923.66 53.9998 924.32 53.9998 925 53.9998C927.117 56.3014 928.833 58.9409 930.625 61.4998C931.43 62.6476 931.43 62.6476 932.252 63.8186C939.517 74.4046 945.104 85.7559 949 97.9998C949.588 99.8251 949.588 99.8251 950.188 101.687C953.173 113.86 952.177 126.32 951.125 138.687C951.047 139.656 950.968 140.625 950.887 141.623C950.803 142.535 950.719 143.447 950.633 144.387C950.559 145.203 950.486 146.02 950.411 146.862C950 149 950 149 948 152C947.01 152.33 946.02 152.66 945 153C944.34 153.99 943.68 154.98 943 156C941.453 155.629 941.453 155.629 939.875 155.25C935.98 154.572 935.98 154.572 933.45 156.95C929.025 160.089 924.16 159.574 918.921 159.549C917.814 159.559 916.708 159.57 915.568 159.58C911.915 159.608 908.263 159.606 904.609 159.601C902.064 159.609 899.518 159.618 896.972 159.627C891.636 159.642 886.3 159.642 880.963 159.631C874.816 159.619 868.669 159.644 862.522 159.686C856.586 159.726 850.651 159.732 844.716 159.725C842.201 159.726 839.686 159.736 837.171 159.756C833.646 159.781 830.122 159.768 826.597 159.744C825.567 159.76 824.537 159.775 823.476 159.791C816.246 159.687 810.488 157.902 805 153C804.229 150.8 804.229 150.8 804 149C808.016 146.238 811.858 145.23 816.562 144.312C826.041 142.277 834.705 138.715 843.624 134.987C860.642 127.917 876.493 123.458 895 123C891.379 120.764 887.753 118.537 884.125 116.312C883.112 115.686 882.099 115.061 881.055 114.416C876.322 111.519 871.624 108.753 866.617 106.355C863.68 104.945 861.332 103.577 858.941 101.367C855.153 98.318 851.59 97.3156 846.938 96.1248C846.148 95.9005 845.358 95.6762 844.545 95.4451C840.423 94.3394 837.159 93.5156 833 94.9998C831.333 96.4997 831.333 96.4997 830 97.9998C829.34 97.9998 828.68 97.9998 828 97.9998C828 98.6598 828 99.3198 828 99.9998C825.223 102.083 822.133 103.71 819.125 105.437C818.303 105.928 817.48 106.418 816.633 106.924C797.619 117.931 773.085 117.54 752.242 112.207C750.826 111.812 749.412 111.41 748 111C746.939 110.695 746.939 110.695 745.856 110.384C737.575 107.927 737.575 107.927 734 106C732.945 104.031 732.945 104.031 733 102C736.536 97.2588 743.164 95.2923 748.5 93.2498C752.377 91.7513 756.019 89.9884 759.697 88.0679C772.567 81.3711 785.799 78.4343 800 75.9998C799.175 75.3811 798.35 74.7623 797.5 74.1248C796.675 73.4236 795.85 72.7223 795 71.9998C795 71.3398 795 70.6798 795 69.9998C794.397 69.7446 793.793 69.4893 793.172 69.2264C783.678 63.8648 777.91 45.4712 774.25 35.7498C771.652 29.4068 768.019 25.3739 762.962 20.9051C761.579 19.6701 760.282 18.3398 759 16.9998C759 15.6798 759 14.3598 759 12.9998C770.764 10.4075 783.276 15.8058 794.074 20.2146C795.907 20.962 797.75 21.6847 799.594 22.4061C814.543 28.4666 830.608 37.3357 841 49.9998C841 50.6598 841 51.3198 841 51.9998C841.66 51.9998 842.32 51.9998 843 51.9998C845.08 54.8006 846.709 57.9103 848.438 60.9373C848.928 61.7681 849.418 62.5989 849.924 63.4549C854.614 71.5891 857.235 79.2352 858.188 88.5623C858.269 89.2848 858.351 90.0073 858.436 90.7518C858.632 92.5001 858.817 94.2499 859 95.9998C859.87 96.2886 860.74 96.5773 861.637 96.8748C862.747 97.2461 863.856 97.6173 865 97.9998C866.402 98.4639 866.402 98.4639 867.832 98.9373C877.627 102.429 886.178 107.559 895 113C894.308 112.178 894.308 112.178 893.602 111.34C877.337 91.5713 869.632 72.8605 866.771 47.3946C865.308 34.5412 862.249 23.9878 856.697 12.3494C853.468 5.36955 853.468 5.36955 854 0.999805ZM895 113C895.99 113.99 896.98 114.98 898 116C897.67 115.01 897.34 114.02 897 113C896.34 113 895.68 113 895 113Z" fill="#EAA636"/>
<path d="M218 0.999804C218.901 3.45885 219.154 4.60903 218.18 7.08574C217.749 7.84113 217.319 8.59652 216.875 9.3748C209.738 22.9549 206.996 37.0121 205.289 52.0755C202.668 75.085 193.838 94.9113 178 112C178.851 111.527 179.702 111.054 180.578 110.566C189.064 105.914 197.699 101.776 206.56 97.8829C207.383 97.5206 208.206 97.1582 209.055 96.785C209.792 96.4641 210.529 96.1432 211.289 95.8125C212.99 95.122 212.99 95.122 214 93.9998C214.295 92.076 214.585 90.1513 214.848 88.2229C217.314 70.7038 224.257 57.4173 237 44.9998C237.59 44.3888 238.181 43.7778 238.789 43.1482C255.235 27.2624 285.406 12.7764 308.625 12.6873C310.085 12.764 311.545 12.8556 313 12.9998C313.281 15.2654 313.281 15.2654 313 17.9998C311.094 19.8592 311.094 19.8592 308.5 21.7498C301.904 27.3519 299.293 33.975 295.977 41.7537C290.008 55.4821 283.59 66.316 272 75.9998C273.488 77.4876 274.907 77.3308 276.98 77.5779C291.583 79.448 303.769 83.1018 316.866 89.91C320.372 91.727 323.877 93.4035 327.535 94.8943C328.272 95.1968 329.009 95.4992 329.768 95.8108C331.184 96.383 332.607 96.9395 334.037 97.4778C335.965 98.2615 335.965 98.2615 339 99.9998C339.941 102.707 339.941 102.707 340 105C317.742 114.863 290.034 120.045 266.324 112.394C257.523 108.702 249.498 104.069 242.551 97.4451C240.854 95.7861 240.854 95.7861 238 93.9998C232.847 94.5086 227.891 96.0368 222.902 97.3787C220.163 97.965 217.79 98.1175 215 97.9998C214.625 98.9105 214.625 98.9105 214.242 99.8396C212.783 102.377 211.657 103.125 209.125 104.562C208.246 105.066 207.367 105.57 206.461 106.09C201.027 109.089 195.592 112.087 190.133 115.041C185.6 117.507 181.237 120.051 177 123C177.593 123.039 178.186 123.079 178.797 123.12C190.686 123.953 201.7 125.041 213 129C214.156 129.383 215.313 129.766 216.504 130.16C222.173 132.095 227.534 134.228 232.875 136.937C240.187 140.453 247.897 142.167 255.775 143.996C257.28 144.346 257.28 144.346 258.816 144.703C259.718 144.906 260.62 145.108 261.549 145.317C263.947 145.985 265.899 146.663 268 148C268.33 148.99 268.66 149.98 269 151C267.753 151.962 266.502 152.92 265.25 153.875C264.554 154.408 263.858 154.942 263.141 155.492C259.423 158.111 256.769 159.249 252.187 159.267C250.738 159.28 250.738 159.28 249.26 159.293C248.207 159.292 247.154 159.291 246.069 159.29C244.954 159.297 243.84 159.304 242.692 159.311C239.004 159.33 235.317 159.334 231.629 159.336C229.068 159.342 226.508 159.349 223.947 159.356C218.578 159.368 213.209 159.372 207.84 159.37C201.638 159.369 195.436 159.39 189.234 159.422C183.263 159.451 177.291 159.458 171.32 159.457C168.781 159.46 166.242 159.468 163.704 159.484C160.156 159.503 156.609 159.498 153.061 159.486C152.01 159.497 150.959 159.508 149.876 159.52C144.176 159.47 141.233 159.168 137 155C134.249 155.131 134.249 155.131 132 156C131.67 156.99 131.34 157.98 131 159C129.334 159.043 127.666 159.04 126 159C125.67 158.67 125.34 158.34 125 158C125.032 155.969 125.068 153.939 125.16 151.91C125.187 149.756 125.187 149.756 123 148C121.14 139.856 120.442 131.332 120 123C119.934 121.779 119.869 120.558 119.801 119.301C119.552 110.82 120.683 104.726 124 96.9998C124.676 95.0833 125.352 93.1666 126.02 91.2471C130.93 77.3972 138.35 65.8423 147.693 54.5818C148.599 53.4853 149.492 52.3776 150.374 51.2615C151.538 49.8046 152.765 48.3973 154 46.9998C154.66 46.9998 155.32 46.9998 156 46.9998C156.33 46.0098 156.66 45.0198 157 43.9998C157.66 43.9998 158.32 43.9998 159 43.9998C159 43.3398 159 42.6798 159 41.9998C159.66 41.9998 160.32 41.9998 161 41.9998C161.33 41.0098 161.66 40.0198 162 38.9998C162.66 38.9998 163.32 38.9998 164 38.9998C164 38.3398 164 37.6798 164 36.9998C165.328 35.6248 165.328 35.6248 167.25 33.9998C167.991 33.372 168.732 32.7443 169.496 32.0975C170.322 31.4052 171.149 30.713 172 29.9998C172.837 29.2766 173.673 28.5535 174.535 27.8084C180.737 22.514 187.144 17.5498 193.688 12.6873C194.471 12.1007 195.255 11.5141 196.062 10.9097C210.787 0.0750408 210.787 0.075041 218 0.999804ZM167 121C166.67 121.66 166.34 122.32 166 123C166.99 122.67 167.98 122.34 169 122C168.34 121.67 167.68 121.34 167 121Z" fill="#EAA636"/>
<path d="M341.829 39.8145C344.059 39.8123 346.288 39.7941 348.518 39.7752C349.94 39.7723 351.363 39.7703 352.785 39.7693C354.073 39.7652 355.361 39.7611 356.688 39.7569C359.76 39.9822 361.438 40.3695 364 41.9998C363.729 45.4708 363.164 46.827 360.734 49.3943C353.507 55.2503 346.197 60.5352 338 64.9998C337.077 65.5296 336.154 66.0594 335.203 66.6053C327.482 70.3303 320.093 70.453 311.625 70.4998C309.93 70.5095 309.93 70.5095 308.2 70.5193C302.056 70.4244 297.43 69.9417 292 66.9998C293.038 60.1943 299.187 54.1671 304.434 50.1248C306.906 48.6056 309.391 47.2711 312 45.9998C312.958 45.5267 313.916 45.0536 314.902 44.5662C324.045 40.2344 331.81 39.8134 341.829 39.8145Z" fill="#EAA636"/>
<path d="M724.404 39.8145C726.596 39.8123 728.788 39.7942 730.98 39.7752C740.28 39.7364 748.825 39.9599 757.25 44.4373C758.078 44.8756 758.905 45.3139 759.758 45.7654C760.498 46.1728 761.238 46.5801 762 46.9998C763.547 47.8351 763.547 47.8351 765.125 48.6873C766.053 49.337 766.053 49.337 767 49.9998C767 50.6598 767 51.3198 767 51.9998C767.574 52.2499 768.147 52.5 768.738 52.7576C771.315 54.1727 773.105 55.8039 775.188 57.8748C775.882 58.5528 776.577 59.2309 777.293 59.9295C779.025 62.0307 779.601 63.3408 780 65.9998C771.516 72.7287 758.303 70.7449 748 69.9998C738.32 68.4819 728.77 62.8464 721 56.9998C721 56.3398 721 55.6798 721 54.9998C720.426 54.7265 719.853 54.4532 719.262 54.1717C715.496 52.2208 712.044 49.9671 709 46.9998C708 43.6248 708 43.6248 708 40.9998C713.25 39.2498 718.906 39.8139 724.404 39.8145Z" fill="#EAA636"/>
<path d="M962 106C969.843 105.509 974.872 109.368 980.625 114.43C987.199 120.539 993.162 127.124 998.73 134.16C1000.43 136.287 1002.15 138.368 1003.93 140.433C1004.43 141.016 1004.93 141.599 1005.44 142.199C1006.41 143.33 1007.39 144.459 1008.37 145.586C1012.53 150.438 1014 152.512 1014 159C999.81 159 985.62 159 971 159C970.688 143.187 970.688 143.187 970.612 138.27C970.558 124.154 970.558 124.154 964.312 112.062C963.549 111.382 962.786 110.701 962 110C962 108.68 962 107.36 962 106Z" fill="#EAA636"/>
<path d="M105 109C105.145 113.791 104.679 117.805 103.5 122.437C101.744 130.609 101.777 138.541 101.936 146.875C101.964 148.365 101.964 148.365 101.992 149.887C102.017 150.776 102.041 151.665 102.066 152.581C102 155 102 155 101 159C87.14 159 73.28 159 59 159C59.9627 152.261 60.4153 150.765 64.375 145.812C65.5622 144.306 65.5622 144.306 66.7734 142.769C67.5082 141.855 68.243 140.941 69 140C69.5491 139.22 70.0983 138.44 70.6641 137.637C71.1049 137.096 71.5458 136.556 72 136C72.66 136 73.32 136 74 136C74.2372 135.458 74.4744 134.917 74.7188 134.359C76.3435 131.367 78.3502 128.888 80.5 126.25C81.2941 125.265 82.0881 124.28 82.9062 123.265C83.5972 122.518 84.2881 121.77 85 121C85.66 121 86.32 121 87 121C87.33 120.01 87.66 119.02 88 118C88.66 118 89.32 118 90 118C90 117.34 90 116.68 90 116C91.6445 114.527 91.6445 114.527 93.8125 112.937C94.5202 112.41 95.2279 111.883 95.957 111.34C99.1578 109.24 101.132 109 105 109Z" fill="#EAA636"/>
<path d="M18 134C19.7225 135.722 19.1723 137.964 19.1875 140.312C19.149 146.721 18.1979 152.711 17 159C11.39 159 5.78 159 0 159C1.12142 151.15 1.12142 151.15 3.875 146.937C5.66044 144.138 7.24102 141.5 8.6875 138.5C10.944 134.202 13.4341 133.639 18 134Z" fill="#EAA636"/>
<path d="M1054 132C1057.92 132.581 1060.1 134.359 1063 137C1064.77 139.91 1064.77 139.91 1066.25 143.062C1066.75 144.105 1067.25 145.148 1067.77 146.222C1069.77 150.735 1070.09 154.076 1070 159C1067.03 159 1064.06 159 1061 159C1053 143.146 1053 143.146 1053 135C1053.33 134.01 1053.66 133.02 1054 132Z" fill="#EAA636"/>
<path d="M949 135C949.66 135.33 950.32 135.66 951 136C950.886 138.105 950.758 140.209 950.625 142.312C950.555 143.484 950.486 144.656 950.414 145.863C950 149 950 149 948 152C945.375 152.187 945.375 152.187 943 152C942.67 150.68 942.34 149.36 942 148C943.98 148 945.96 148 948 148C947.988 147.313 947.977 146.626 947.965 145.918C947.956 145.017 947.947 144.116 947.938 143.187C947.926 142.294 947.914 141.401 947.902 140.48C948 138 948 138 949 135Z" fill="#EAA636"/>
<path d="M874 102C879.265 103.815 883.494 105.733 888 109C887.67 109.66 887.34 110.32 887 111C885.33 110.342 883.664 109.673 882 109C880.144 108.319 880.144 108.319 878.25 107.625C875 106 875 106 874.297 103.898C874.199 103.272 874.101 102.645 874 102Z" fill="#EAA636"/>
<path d="M1054 132C1055.88 132.312 1055.88 132.312 1058 133C1058.66 133.99 1059.32 134.98 1060 136C1059.01 136 1058.02 136 1057 136C1056.34 137.98 1055.68 139.96 1055 142C1052.43 138.149 1053.17 136.414 1054 132Z" fill="#EAA636"/>
<path d="M189 15.9998C189.66 16.3298 190.32 16.6598 191 16.9998C189.607 20.367 188.021 21.9858 185 23.9998C185 23.3398 185 22.6798 185 21.9998C184.34 21.6698 183.68 21.3398 183 20.9998C184.98 19.3498 186.96 17.6998 189 15.9998Z" fill="#EAA636"/>
<path d="M962 106C962.33 106.66 962.66 107.32 963 108C965.527 108.655 965.527 108.655 968 109C967.67 110.65 967.34 112.3 967 114C964.5 112.25 964.5 112.25 962 110C962 108.68 962 107.36 962 106Z" fill="#EAA636"/>
<path d="M949 135C949.66 135.33 950.32 135.66 951 136C950.414 142.152 950.414 142.152 950 144C949.01 144.495 949.01 144.495 948 145C947.875 138.375 947.875 138.375 949 135Z" fill="#EAA636"/>
<path d="M182 110C182.66 110.33 183.32 110.66 184 111C182.35 112.65 180.7 114.3 179 116C178.01 115.67 177.02 115.34 176 115C176 114.34 176 113.68 176 113C177.965 111.932 179.969 110.934 182 110Z" fill="#EAA636"/>
<path d="M124 146C124.66 146 125.32 146 126 146C126.33 146.66 126.66 147.32 127 148C127.99 148 128.98 148 130 148C129.67 148.66 129.34 149.32 129 150C128.34 150 127.68 150 127 150C126.67 150.66 126.34 151.32 126 152C125.01 150.35 124.02 148.7 123 147C123.33 146.67 123.66 146.34 124 146Z" fill="#EAA636"/>
</svg>
