<svg width="1422" height="209" viewBox="0 0 1422 209" fill="none" xmlns="http://www.w3.org/2000/svg">
<path d="M267.2 9.533C237.6 29.2663 206.533 57.7997 189.067 81.2663C176.267 98.5997 164.267 125.933 161.2 145.133C160.4 150.466 162.667 184.866 164.133 190.6C164.667 192.733 166 193.666 168.133 193.666C171.733 193.666 172.4 196.466 169.333 199C168.267 199.933 167.333 201.133 167.333 201.8C167.333 203.666 170.8 203.133 172.667 201C175.2 197.933 178.133 198.6 186 203.666L193.333 208.2L263.2 208.333H333.067L341.333 204.466C350.933 199.933 354.133 196.733 351.2 195C350.133 194.333 343.6 192.466 336.667 190.866C329.733 189.266 313.733 183.8 301.2 178.866C271.467 167 261.333 164.6 235.733 163.933C224.533 163.666 215.067 163.133 214.667 162.733C214.267 162.333 218.8 157.533 224.667 152.2C240.533 137.933 257.467 112.733 263.067 94.9997C266.533 84.0663 268.267 75.2663 270 58.0663C270.8 50.5997 272.667 40.1997 274.133 34.8663C277.467 22.8663 284.4 4.59966 286.133 3.66633C288.4 2.19966 287.333 0.332997 284.267 0.332997C282.533 0.332997 274.8 4.46633 267.2 9.533Z" fill="#EAA636"/>
<path d="M1139.33 1.66633C1139.33 2.46633 1140.8 5.933 1142.53 9.39966C1149.33 22.733 1153.73 38.333 1156 56.4663C1158.93 80.333 1162.53 96.4663 1167.33 106.733C1173.07 119 1184.93 135.266 1198.27 149.133C1209.73 161 1211.87 164.333 1208.13 164.333C1204.8 164.333 1202 162.733 1202 161C1202 158.866 1190.13 149.533 1178.53 142.6C1169.33 137 1152.53 129.666 1149.2 129.666C1145.6 129.666 1149.47 133.4 1157.2 137.266C1166.8 142.066 1200.53 162.2 1200.67 163.133C1200.67 163.666 1193.87 164.066 1185.47 164.066C1165.87 164.2 1154.4 167 1124.67 178.733C1111.87 183.8 1096.27 189.266 1090 190.866C1074.13 195 1072 195.933 1074 198.333C1074.93 199.4 1078.93 202.066 1083.07 204.333L1090.53 208.333H1162.8C1211.47 208.333 1235.47 207.933 1236 207C1237.33 204.866 1247.07 199 1249.2 199C1250.13 199 1251.73 198.066 1252.67 197C1253.6 195.933 1256 195 1258 195C1261.33 195 1261.73 194.466 1262.53 189.266C1262.93 186.2 1263.73 174.6 1264.27 163.666C1265.07 144.6 1264.93 143 1261.47 131C1251.07 94.9997 1227.2 62.4663 1187.33 30.5997C1158 7.26633 1139.33 -4.067 1139.33 1.66633Z" fill="#EAA636"/>
<path d="M394.667 18.3334C355.067 28.3334 320.4 48.8667 304.267 71.4C293.333 86.7334 289.2 97.5334 286.667 117.4L285.733 124.6L292.133 123.533C295.733 123 300.933 121.8 303.867 120.867C312.8 117.667 315.733 118.467 325.6 126.333C336 134.6 352.8 143.267 363.333 145.8C372.933 148.067 401.333 147.667 413.467 145.267C423.867 143 444.267 136.867 447.333 135C450.267 133.133 448.267 131.8 432.133 125C424 121.667 414.933 117.533 411.867 115.667C400.533 109 383.067 104.067 365.067 102.333C359.733 101.8 355.333 100.867 355.333 100.333C355.333 99.6667 359.467 95.5334 364.4 91.1334C374.267 82.3334 380.8 71.8 392.667 45C397.333 34.6 400.267 30.2 405.733 25C416.933 14.0667 415.2 13 394.667 18.3334Z" fill="#EAA636"/>
<path d="M1013.47 16.0668C1013.07 16.7334 1016.53 21.2668 1021.2 25.9334C1027.2 32.0668 1030.4 36.6001 1032.4 41.9334C1034 46.0668 1038.4 55.9335 1042.13 63.9335C1048.27 76.6001 1050.4 79.5335 1060.27 89.1335C1066.27 95.0001 1071.33 100.2 1071.33 100.6C1071.33 101 1065.87 101.667 1059.33 102.2C1043.6 103.4 1027.33 108.2 1011.47 116.333C1004.4 119.933 994 125 988.267 127.667C982.133 130.333 978 133 978.267 133.933C978.933 135.8 989.2 139.4 1006.67 143.8C1023.33 147.933 1051.2 148.467 1064.93 145C1075.07 142.333 1092.4 132.867 1103.33 124.067L1111.33 117.533L1125.73 121.533C1133.6 123.8 1140.53 125.667 1141.07 125.667C1141.47 125.667 1141.47 124.333 1140.8 122.6C1140.13 121 1139.2 116.2 1138.67 111.8C1137.2 99.5335 1134.13 91.1335 1126.8 79.0001C1113.47 57.0001 1094.67 42.4668 1061.07 28.3334C1036.53 17.9334 1015.6 12.6001 1013.47 16.0668Z" fill="#EAA636"/>
<path d="M437.333 52.333C432 52.8663 425.333 55.2663 417.467 59.133C407.867 63.933 404.133 66.733 397.6 74.0663C392.4 79.7997 390 83.533 390.8 84.333C392.8 86.333 405.333 88.333 415.2 88.333C432.8 88.333 447.467 82.1997 469.067 65.933C479.733 57.6663 482.267 54.733 479.733 53.2663C477.6 52.0663 445.067 51.2663 437.333 52.333Z" fill="#EAA636"/>
<path d="M954.133 52.1993C944.667 53.1326 942.8 54.8659 947.733 58.0659C949.6 59.2659 954.533 63.2659 958.8 66.9993C974.533 80.8659 994.133 88.4659 1013.2 88.1993C1024.27 88.0659 1034.27 85.7993 1035.07 83.1326C1035.87 80.5993 1018.93 64.9993 1009.33 59.6659C1004.93 57.2659 998.933 54.5993 996 53.9326C989.067 52.1993 964.933 51.2659 954.133 52.1993Z" fill="#EAA636"/>
<path d="M261.867 135.399C237.467 147.666 223.733 157.266 226.533 160.066C227.467 160.866 273.867 134.599 278.667 130.466C285.467 124.733 279.6 126.333 261.867 135.399Z" fill="#EAA636"/>
<path d="M1284.67 141.266C1284.67 141.8 1285.87 143.4 1287.2 144.866C1291.47 149.533 1294 161 1294 176.2C1294 183.933 1294.4 194.333 1294.93 199.266L1295.73 208.333H1321.47H1347.33V205.266C1347.33 203.666 1346.27 200.733 1345.07 199C1341.73 194.066 1318.4 166.2 1310.13 157.4C1301.6 148.2 1284.67 137.4 1284.67 141.266Z" fill="#EAA636"/>
<path d="M130.133 145.8C125.867 147.533 106.133 167.8 93.8666 183.133C82.6666 197 79.9999 200.866 78.6666 205.266L77.8666 208.333H104.533H131.333V187.266C131.333 173.666 132 163.533 133.333 158.333C135.467 149.4 135.867 144.333 134.4 144.466C133.733 144.466 131.867 145.133 130.133 145.8Z" fill="#EAA636"/>
<path d="M1405.47 177.266C1403.87 179 1406.27 187.8 1411.07 197.933C1415.07 206.333 1416.53 208.333 1418.93 208.333C1421.6 208.333 1422 207.666 1422 203.666C1422 193.266 1409.47 173.266 1405.47 177.266Z" fill="#EAA636"/>
<path d="M14.5333 178.733C13.7333 179.266 11.4666 182.6 9.46663 186.333C7.59996 189.933 4.79996 195.133 3.33329 197.666C1.86663 200.2 0.666626 203.666 0.666626 205.266C0.666626 208.2 1.19996 208.333 9.19996 208.333H17.7333L19.2 199.933C20 195.266 20.6666 188.333 20.6666 184.6C20.6666 178.866 20.2666 177.666 18.4 177.666C17.0666 177.666 15.3333 178.2 14.5333 178.733Z" fill="#EAA636"/>
</svg>
