<?xml version="1.0" standalone="no"?>
<!DOCTYPE svg PUBLIC "-//W3C//DTD SVG 20010904//EN"
 "http://www.w3.org/TR/2001/REC-SVG-20010904/DTD/svg10.dtd">
<svg version="1.0" xmlns="http://www.w3.org/2000/svg"
 width="200.000000pt" height="218.000000pt" viewBox="0 0 200.000000 218.000000"
 preserveAspectRatio="xMidYMid meet">

<g transform="translate(0.000000,218.000000) scale(0.100000,-0.100000)"
fill="#000000" stroke="none">
<path d="M0 1090 l0 -1090 1000 0 1000 0 0 1090 0 1090 -1000 0 -1000 0 0
-1090z m358 968 c7 -7 12 -24 12 -39 0 -46 -31 -59 -138 -59 -85 0 -95 2 -117
24 -25 25 -25 44 -2 74 13 17 228 17 245 0z m848 -4 c333 -68 592 -306 699
-640 35 -108 43 -195 21 -217 -22 -22 -49 -22 -68 1 -8 9 -23 58 -33 107 -23
113 -54 188 -121 290 -93 142 -222 249 -372 308 -136 52 -177 57 -549 57 -330
0 -344 1 -363 20 -24 24 -26 53 -4 74 23 23 678 24 790 0z m29 -203 c39 -12
78 -30 88 -39 23 -20 22 -55 -3 -77 -21 -19 -19 -19 -135 14 -65 19 -103 20
-562 20 -433 1 -493 3 -507 17 -19 19 -21 65 -4 82 10 10 129 12 533 10 514
-3 521 -4 590 -27z m252 -139 c104 -87 173 -187 226 -324 30 -80 31 -88 32
-243 0 -135 -3 -165 -18 -192 -13 -25 -24 -33 -46 -33 -49 0 -55 18 -41 125
32 245 -53 451 -252 613 -34 27 -37 65 -6 86 33 23 41 21 105 -32z m-703 -44
c21 -30 20 -44 -4 -68 -19 -19 -33 -20 -332 -20 -341 0 -348 1 -348 60 0 50 1
50 346 50 322 0 323 0 338 -22z m361 7 c198 -51 363 -219 404 -413 38 -181
-17 -367 -148 -498 -63 -64 -85 -73 -122 -54 -37 20 -24 60 36 113 102 90 159
251 135 387 -29 168 -136 295 -294 350 -46 16 -85 20 -174 20 -93 0 -119 3
-134 17 -20 18 -23 45 -8 74 10 17 22 19 128 19 73 0 141 -6 177 -15z m-821
-197 c21 -30 20 -44 -4 -68 -17 -17 -33 -20 -101 -20 -99 0 -119 9 -119 55 0
46 18 54 122 55 79 0 88 -2 102 -22z m838 -11 c74 -36 136 -97 172 -169 33
-68 30 -104 -11 -114 -36 -10 -53 4 -87 70 -16 31 -44 69 -62 83 -66 50 -85
52 -438 53 -292 0 -331 2 -348 17 -22 20 -23 56 -2 78 15 14 54 16 368 13
l351 -3 57 -28z m-76 -178 c102 -49 122 -184 39 -258 -42 -37 -90 -51 -172
-51 -35 0 -63 -3 -63 -7 0 -3 122 -129 272 -280 150 -150 276 -279 280 -287 4
-8 6 -21 2 -29 -8 -22 -49 -41 -67 -31 -8 5 -164 156 -346 336 -290 286 -331
330 -331 357 0 20 7 34 19 41 11 5 85 10 170 10 123 0 152 3 165 16 21 20 20
53 -1 76 -15 17 -43 18 -468 18 -490 0 -487 0 -487 55 0 55 -4 55 491 55 439
0 456 -1 497 -21z m259 -163 c15 -11 17 -21 12 -61 -9 -62 -42 -119 -106 -178
-53 -50 -87 -59 -115 -31 -26 26 -19 44 42 103 41 40 61 70 71 101 22 74 54
97 96 66z m574 -2 c22 -16 23 -22 18 -88 -11 -128 -56 -254 -142 -396 -35 -57
-135 -166 -179 -196 -35 -22 -74 -12 -82 22 -6 22 4 36 66 98 40 41 90 101
112 135 62 98 127 291 128 378 0 21 7 37 22 47 28 20 28 20 57 0z m-1037 -421
c244 -244 388 -395 388 -407 0 -26 -29 -56 -54 -56 -14 0 -143 123 -391 370
l-370 370 -155 0 c-170 0 -200 8 -200 55 0 51 16 55 213 55 l181 0 388 -387z
m-295 24 c177 -176 191 -198 157 -231 -38 -38 -61 -23 -219 139 l-150 155
-122 0 c-132 0 -153 8 -153 55 0 49 20 55 173 55 l141 0 173 -173z m1078 129
c15 -23 15 -27 -4 -63 -38 -76 -157 -209 -200 -225 -25 -9 -61 18 -61 45 0 14
21 44 55 77 31 30 70 78 87 105 18 28 38 58 46 68 22 25 59 21 77 -7z m-1128
-348 c112 -111 206 -211 209 -221 9 -28 -22 -67 -54 -67 -22 0 -63 36 -217
190 l-190 190 -73 0 c-92 0 -112 10 -112 55 0 47 18 54 134 55 l100 0 203
-202z m-170 -90 c117 -115 132 -138 108 -174 -30 -47 -61 -33 -165 71 -92 92
-96 95 -140 95 -52 0 -70 13 -70 49 0 45 26 61 98 61 l65 0 104 -102z m555
-26 c100 -100 113 -125 82 -156 -34 -35 -64 -20 -161 77 -97 98 -109 122 -76
159 30 33 54 21 155 -80z m-714 -78 c24 -17 30 -62 10 -82 -7 -7 -30 -12 -53
-12 -48 0 -65 13 -65 51 0 31 31 59 65 59 11 0 31 -7 43 -16z"/>
</g>
</svg>
