<svg height="511pt" viewBox="-55 0 511 511.99902" width="511pt" xmlns="http://www.w3.org/2000/svg"><g fill-rule="evenodd"><path d="m332.472656 442c5.191406-123.683594 21.847656-358.035156-144.667968-375.140625-1.355469-13.148437-3.371094-23.269531-5.648438-31.050781-7.027344-24.058594-16.511719-25.808594-16.511719-25.808594-27.726562 19.410156-33.273437 70.984375-33.273437 70.984375l-99.820313 86.511719s-47.691406 31.609375-2.773437 86.511718l17.191406-9.984374c1.566406 14.316406 47.6875 37.550781 60.933594-10.375h46.515625c3.957031 62.023437-117.402344 66.1875-94.058594 208.351562zm0 0" fill="#f0f0fb"/><path d="m184.359375 44.542969c1.359375 6.246093 2.546875 13.613281 3.445313 22.316406 166.515624 17.105469 149.859374 251.457031 144.667968 375.140625h13.796875c37.445313-147.894531 32.535157-378.640625-161.910156-397.457031zm0 0" fill="#bfbfcf"/><path d="m390.507812 492v-40c0-5.5-4.5-10-10-10h-268c-5.5 0-10 4.5-10 10v40c0 5.5 4.5 10 10 10h268c5.5 0 10-4.5 10-10zm0 0" fill="#bfbfcf"/></g><path d="m136.476562 128.875c-5.507812 0-10 4.492188-10 10s4.492188 10 10 10c5.507813 0 10-4.492188 10-10s-4.492187-10-10-10zm0 0"/><path d="m381.183594 432.035156c13.386718-54.785156 19.34375-113.070312 16.820312-165.53125-3.378906-70.179687-21.058594-126.574218-52.550781-167.617187-35.945313-46.84375-88.4375-71.371094-156.09375-72.988281-7.851563-21.066407-18.015625-25.015626-21.898437-25.730469-2.632813-.488281-5.355469.101562-7.546876 1.640625-26.582031 18.605468-34.925781 60.800781-36.945312 74.09375l-96.574219 83.699218c-3.6875 2.636719-21.625 16.574219-25.25 40.582032-2.925781 19.390625 4.101563 39.632812 20.894531 60.15625 3.109376 3.796875 8.515626 4.777344 12.761719 2.3125l8.445313-4.902344c6.835937 7.660156 18.375 13.5625 30.335937 14.527344 18.621094 1.496094 33.734375-9.085938 41.507813-28.628906h28.691406c-2.914062 13.445312-14.378906 24.230468-32.230469 40.035156-30.789062 27.265625-72.460937 64.175781-62.683593 148.316406h-28.359376c-11.027343 0-20 8.972656-20 20v40c0 11.027344 8.972657 20 20 20h360c11.027344 0 20-8.972656 20-20v-40c0-10.796875-8.613281-19.605469-19.324218-19.964844zm-51.601563-320.972656c62.464844 81.402344 56.046875 221.914062 31 320.9375h-17.667969c.050782-1.1875.101563-2.378906.15625-3.582031 2.796876-63.644531 6.625-150.808594-10.652343-224.554688-20.292969-86.621093-65.894531-135.683593-135.609375-145.953125-.570313-4.238281-1.222656-8.160156-1.9375-11.800781 58.421875 2.726563 103.703125 24.539063 134.710937 64.953125zm-156.242187-93.097656c-.003906-.035156-.011719-.070313-.019532-.105469.933594.691406.515626 2.820313.019532.105469zm-48.53125 280.695312c18.578125-16.453125 36.257812-32.109375 39.261718-55.039062 26.613282-.875 47.992188-22.800782 47.992188-49.621094 0-5.523438-4.476562-10-10-10s-10 4.476562-10 10c0 16.347656-13.300781 29.648438-29.648438 29.648438h-7.898437c-.058594 0-.117187 0-.171875 0h-46.441406c-4.496094 0-8.441406 3-9.640625 7.335937-3.84375 13.914063-10.785157 21.121094-20.625 21.421875-6.824219.203125-13.195313-2.808594-17.066407-5.742188l7.175782-5.0625c4.511718-3.183593 5.589844-9.425781 2.40625-13.9375-3.1875-4.511718-9.425782-5.589843-13.9375-2.402343l-14.644532 10.335937-9.171874 5.324219c-9.316407-13.359375-13.1875-25.957031-11.507813-37.535156 2.519531-17.398438 17.085937-27.488281 17.1875-27.554688.355469-.238281.699219-.5 1.023437-.78125l99.820313-86.511719c1.90625-1.648437 3.121094-3.96875 3.394531-6.476562 1.289063-11.789062 7.90625-42.914062 23.480469-59.054688.144531.214844.296875.441407.453125.679688 1.910156 2.957031 4.144531 7.546875 6.234375 14.617188.058594.226562.117187.445312.191406.664062 2.019531 7.019531 3.890625 16.394531 5.179688 28.917969.488281 4.710937 4.214843 8.4375 8.925781 8.921875 65.730469 6.75 106.996094 49.804687 126.164062 131.617187 16.648438 71.0625 12.890626 156.632813 10.144532 219.113281-.066406 1.5-.128906 2.988282-.195313 4.460938h-16.386719v-31.4375c0-5.523438-4.476562-10-10-10-5.523437 0-10 4.476562-10 10v31.4375h-217.503906c-9.644531-75.394531 25.058594-106.117188 55.804688-133.339844zm-104.300782 193.339844v-40h360v40zm0 0"/><path d="m296.507812 381.476562c5.523438 0 10-4.476562 10-10v-.472656c0-5.523437-4.476562-10-10-10-5.523437 0-10 4.476563-10 10v.472656c0 5.523438 4.476563 10 10 10zm0 0"/></svg>