<svg width="1024" height="1024" viewBox="0 0 1024 1024" fill="none" xmlns="http://www.w3.org/2000/svg">
<g clip-path="url(#clip0_9673_22041)">
<rect width="1024" height="1024" fill="url(#paint0_radial_9673_22041)"/>
<circle cx="485.682" cy="512" r="489.975" stroke="black" stroke-opacity="0.1" stroke-width="33"/>
<circle cx="485.682" cy="512" r="540.537" stroke="black" stroke-opacity="0.1" stroke-width="33"/>
<circle cx="485.682" cy="512" r="592.33" stroke="black" stroke-opacity="0.1" stroke-width="33"/>
<circle cx="490.262" cy="516.58" r="648.703" stroke="black" stroke-opacity="0.1" stroke-width="33"/>
<circle cx="485.68" cy="512" r="139.457" stroke="black" stroke-opacity="0.1" stroke-width="33"/>
<circle cx="485.678" cy="512.001" r="182.823" stroke="black" stroke-opacity="0.1" stroke-width="33"/>
<circle cx="485.681" cy="511.999" r="224.404" stroke="black" stroke-opacity="0.1" stroke-width="33"/>
<circle cx="485.675" cy="512" r="269.82" stroke="black" stroke-opacity="0.1" stroke-width="33"/>
<circle cx="485.678" cy="512" r="312.763" stroke="black" stroke-opacity="0.1" stroke-width="33"/>
<circle cx="485.676" cy="512" r="356.817" stroke="black" stroke-opacity="0.1" stroke-width="33"/>
<circle cx="485.685" cy="511.999" r="401.337" stroke="black" stroke-opacity="0.1" stroke-width="33"/>
<circle cx="485.68" cy="512" r="445.59" stroke="black" stroke-opacity="0.1" stroke-width="33"/>
<g filter="url(#filter0_d_9673_22041)">
<path d="M271.451 358.361C267.218 360.329 262.283 360.057 258.291 357.636L156.768 296.064C152.583 293.526 150.027 288.988 150.028 284.093L150.029 182.974L383.535 180.352L379.062 299.939C378.866 305.194 375.741 309.895 370.972 312.111L271.451 358.361Z" fill="url(#paint1_linear_9673_22041)"/>
<path d="M259.288 253.178L157.53 195.696C148.067 190.35 148.478 176.583 158.244 171.812L260.463 121.873C264.046 120.122 268.219 120.045 271.863 121.662L375.134 167.473C385.155 171.918 385.979 185.822 376.554 191.42L272.822 253.031C268.663 255.501 263.5 255.557 259.288 253.178Z" fill="#4FE963" stroke="#56CE70"/>
<path d="M271.372 233.237C268.173 235.133 264.201 235.173 260.958 233.341L185.42 190.659C178.134 186.543 178.442 175.959 185.953 172.297L261.764 135.34C264.52 133.996 267.731 133.94 270.536 135.185L350.428 172.248C358.141 175.672 358.785 186.362 351.536 190.66L271.372 233.237Z" fill="#28892D"/>
<path d="M268.697 210.987C265.858 212.306 262.549 212.123 259.873 210.5L191.805 169.218C188.999 167.517 187.286 164.474 187.286 161.192L187.287 129.426L344.535 128.352L340.846 171.816C340.715 175.339 338.62 178.492 335.422 179.977L268.697 210.987Z" fill="url(#paint2_linear_9673_22041)"/>
<path d="M269.489 88.246L340.285 119.186C340.285 119.186 340.286 119.186 340.286 119.186C346.842 122.098 347.386 131.181 341.23 134.833C341.229 134.833 341.229 134.833 341.228 134.834L270.186 176.177L270.182 176.179C267.464 177.791 264.087 177.825 261.331 176.268L192.766 137.526C186.572 134.027 186.837 125.032 193.218 121.921L262.03 88.3755C264.372 87.234 267.101 87.1859 269.486 88.2446L269.489 88.246Z" fill="url(#paint3_linear_9673_22041)" stroke="#FCFCFC" stroke-width="1.2"/>
<path d="M271.53 169.931C267.399 172.385 262.271 172.441 258.087 170.077L197.45 135.824C192.75 133.169 192.955 126.332 197.805 123.962L260.361 93.4006C263.207 92.0098 266.523 91.9486 269.419 93.2333L336.684 121.297C341.661 123.505 342.07 130.41 337.389 133.191L271.53 169.931Z" fill="#4FE963"/>
<path d="M176.879 227.093L229.91 256.535C232.292 257.858 233.769 260.368 233.769 263.092L233.769 312.24C233.769 318.072 227.403 321.673 222.404 318.667L168.626 286.332C166.333 284.953 164.948 282.458 164.992 279.783L165.74 233.529C165.831 227.865 171.927 224.344 176.879 227.093Z" fill="#4FE963" stroke="#56CE70"/>
</g>
<path d="M196.221 261.293L198.543 256.685L207.151 261.024L194.027 287.063L188.883 284.471L199.685 263.039L196.221 261.293Z" fill="white"/>
<path d="M429.699 202.918C429.548 201.574 428.923 200.532 427.824 199.793C426.726 199.045 425.343 198.671 423.676 198.671C422.483 198.671 421.451 198.861 420.58 199.239C419.709 199.609 419.032 200.12 418.549 200.773C418.075 201.417 417.838 202.151 417.838 202.975C417.838 203.666 417.999 204.263 418.321 204.765C418.653 205.267 419.084 205.688 419.614 206.029C420.154 206.361 420.731 206.64 421.347 206.867C421.962 207.085 422.554 207.265 423.123 207.407L425.963 208.146C426.891 208.373 427.843 208.681 428.819 209.069C429.794 209.457 430.698 209.969 431.532 210.603C432.365 211.237 433.037 212.023 433.549 212.961C434.069 213.898 434.33 215.021 434.33 216.327C434.33 217.975 433.904 219.438 433.051 220.717C432.209 221.995 430.982 223.004 429.373 223.742C427.772 224.481 425.836 224.85 423.563 224.85C421.385 224.85 419.5 224.504 417.909 223.813C416.319 223.122 415.073 222.142 414.174 220.873C413.274 219.594 412.777 218.079 412.682 216.327H417.086C417.171 217.379 417.512 218.254 418.108 218.955C418.714 219.647 419.486 220.163 420.424 220.504C421.371 220.835 422.408 221.001 423.534 221.001C424.775 221.001 425.878 220.807 426.844 220.418C427.819 220.021 428.587 219.471 429.145 218.771C429.704 218.06 429.983 217.232 429.983 216.285C429.983 215.423 429.737 214.718 429.245 214.168C428.762 213.619 428.104 213.165 427.27 212.805C426.446 212.445 425.514 212.128 424.472 211.853L421.034 210.915C418.705 210.281 416.858 209.348 415.495 208.117C414.141 206.886 413.463 205.257 413.463 203.231C413.463 201.555 413.918 200.092 414.827 198.842C415.736 197.592 416.967 196.621 418.52 195.93C420.073 195.229 421.825 194.879 423.776 194.879C425.746 194.879 427.483 195.224 428.989 195.915C430.504 196.607 431.697 197.558 432.569 198.771C433.44 199.973 433.894 201.356 433.932 202.918H429.699ZM438.14 199.055V195.276H460.654V199.055H451.578V224.367H447.203V199.055H438.14ZM464.65 224.367H459.99L470.459 195.276H475.53L485.999 224.367H481.34L473.115 200.56H472.888L464.65 224.367ZM465.431 212.975H480.544V216.668H465.431V212.975ZM490.2 224.367V195.276H500.853C502.918 195.276 504.627 195.617 505.981 196.299C507.335 196.971 508.349 197.885 509.021 199.04C509.693 200.186 510.029 201.479 510.029 202.918C510.029 204.13 509.807 205.153 509.362 205.987C508.917 206.81 508.32 207.473 507.572 207.975C506.833 208.468 506.019 208.827 505.129 209.055V209.339C506.095 209.386 507.037 209.699 507.956 210.276C508.884 210.844 509.651 211.654 510.257 212.705C510.863 213.756 511.166 215.035 511.166 216.54C511.166 218.027 510.815 219.362 510.115 220.546C509.423 221.72 508.353 222.653 506.904 223.344C505.456 224.026 503.604 224.367 501.35 224.367H490.2ZM494.589 220.603H500.924C503.027 220.603 504.532 220.196 505.441 219.381C506.35 218.567 506.805 217.549 506.805 216.327C506.805 215.409 506.573 214.566 506.109 213.799C505.645 213.032 504.982 212.421 504.12 211.967C503.268 211.512 502.255 211.285 501.081 211.285H494.589V220.603ZM494.589 207.862H500.47C501.455 207.862 502.34 207.672 503.126 207.293C503.922 206.915 504.551 206.384 505.015 205.702C505.489 205.011 505.725 204.197 505.725 203.259C505.725 202.057 505.304 201.048 504.461 200.234C503.618 199.419 502.326 199.012 500.583 199.012H494.589V207.862ZM516.372 224.367V195.276H520.761V220.589H533.943V224.367H516.372ZM538.95 224.367V195.276H557.189V199.055H543.339V207.918H556.237V211.683H543.339V220.589H557.359V224.367H538.95ZM418.222 243.276V272.367H413.833V243.276H418.222ZM448.094 243.276V272.367H444.06L429.273 251.032H429.003V272.367H424.614V243.276H428.676L443.478 264.64H443.748V243.276H448.094ZM478.659 252.737H474.227C474.056 251.79 473.739 250.956 473.275 250.237C472.811 249.517 472.243 248.906 471.571 248.404C470.898 247.902 470.145 247.523 469.312 247.268C468.488 247.012 467.612 246.884 466.684 246.884C465.008 246.884 463.507 247.306 462.181 248.148C460.865 248.991 459.824 250.227 459.056 251.856C458.299 253.485 457.92 255.473 457.92 257.822C457.92 260.189 458.299 262.187 459.056 263.816C459.824 265.445 460.87 266.676 462.196 267.509C463.521 268.343 465.013 268.759 466.67 268.759C467.589 268.759 468.46 268.636 469.284 268.39C470.117 268.134 470.87 267.76 471.542 267.268C472.215 266.775 472.783 266.174 473.247 265.464C473.72 264.744 474.047 263.92 474.227 262.992L478.659 263.006C478.422 264.436 477.963 265.753 477.281 266.955C476.609 268.148 475.742 269.181 474.681 270.052C473.63 270.914 472.428 271.581 471.074 272.055C469.719 272.528 468.242 272.765 466.642 272.765C464.123 272.765 461.878 272.168 459.909 270.975C457.939 269.772 456.386 268.054 455.25 265.819C454.123 263.584 453.559 260.918 453.559 257.822C453.559 254.716 454.127 252.05 455.264 249.825C456.4 247.59 457.953 245.876 459.923 244.683C461.893 243.48 464.132 242.879 466.642 242.879C468.185 242.879 469.625 243.101 470.96 243.546C472.305 243.982 473.512 244.626 474.582 245.478C475.652 246.321 476.538 247.353 477.238 248.575C477.939 249.787 478.413 251.174 478.659 252.737ZM509.181 257.822C509.181 260.928 508.613 263.598 507.476 265.833C506.34 268.058 504.782 269.772 502.803 270.975C500.833 272.168 498.594 272.765 496.084 272.765C493.565 272.765 491.316 272.168 489.337 270.975C487.367 269.772 485.814 268.054 484.678 265.819C483.542 263.584 482.973 260.918 482.973 257.822C482.973 254.716 483.542 252.05 484.678 249.825C485.814 247.59 487.367 245.876 489.337 244.683C491.316 243.48 493.565 242.879 496.084 242.879C498.594 242.879 500.833 243.48 502.803 244.683C504.782 245.876 506.34 247.59 507.476 249.825C508.613 252.05 509.181 254.716 509.181 257.822ZM504.834 257.822C504.834 255.454 504.451 253.461 503.684 251.842C502.926 250.213 501.884 248.982 500.559 248.148C499.242 247.306 497.751 246.884 496.084 246.884C494.408 246.884 492.912 247.306 491.596 248.148C490.279 248.982 489.238 250.213 488.471 251.842C487.713 253.461 487.334 255.454 487.334 257.822C487.334 260.189 487.713 262.187 488.471 263.816C489.238 265.435 490.279 266.666 491.596 267.509C492.912 268.343 494.408 268.759 496.084 268.759C497.751 268.759 499.242 268.343 500.559 267.509C501.884 266.666 502.926 265.435 503.684 263.816C504.451 262.187 504.834 260.189 504.834 257.822ZM514.653 243.276H519.98L529.241 265.89H529.582L538.843 243.276H544.17V272.367H539.994V251.316H539.724L531.145 272.325H527.679L519.099 251.302H518.829V272.367H514.653V243.276ZM550.551 272.367V243.276H568.79V247.055H554.941V255.918H567.838V259.683H554.941V268.589H568.961V272.367H550.551Z" fill="white"/>
<path d="M327.274 576.264V547.173H337.643C339.907 547.173 341.782 547.585 343.268 548.409C344.755 549.232 345.868 550.359 346.607 551.789C347.345 553.21 347.714 554.81 347.714 556.59C347.714 558.38 347.34 559.99 346.592 561.42C345.854 562.84 344.736 563.967 343.24 564.801C341.753 565.624 339.883 566.036 337.629 566.036H330.499V562.315H337.232C338.661 562.315 339.821 562.069 340.712 561.576C341.602 561.074 342.255 560.392 342.672 559.531C343.089 558.669 343.297 557.689 343.297 556.59C343.297 555.492 343.089 554.517 342.672 553.664C342.255 552.812 341.597 552.144 340.697 551.661C339.807 551.178 338.633 550.937 337.175 550.937H331.663V576.264H327.274ZM378.13 561.718C378.13 564.824 377.562 567.495 376.425 569.73C375.289 571.955 373.731 573.669 371.752 574.872C369.782 576.065 367.543 576.661 365.033 576.661C362.514 576.661 360.265 576.065 358.286 574.872C356.317 573.669 354.763 571.95 353.627 569.715C352.491 567.481 351.923 564.815 351.923 561.718C351.923 558.612 352.491 555.946 353.627 553.721C354.763 551.486 356.317 549.772 358.286 548.579C360.265 547.376 362.514 546.775 365.033 546.775C367.543 546.775 369.782 547.376 371.752 548.579C373.731 549.772 375.289 551.486 376.425 553.721C377.562 555.946 378.13 558.612 378.13 561.718ZM373.783 561.718C373.783 559.351 373.4 557.357 372.633 555.738C371.875 554.109 370.834 552.878 369.508 552.045C368.192 551.202 366.7 550.781 365.033 550.781C363.357 550.781 361.861 551.202 360.545 552.045C359.228 552.878 358.187 554.109 357.42 555.738C356.662 557.357 356.283 559.351 356.283 561.718C356.283 564.086 356.662 566.084 357.42 567.713C358.187 569.332 359.228 570.563 360.545 571.406C361.861 572.239 363.357 572.656 365.033 572.656C366.7 572.656 368.192 572.239 369.508 571.406C370.834 570.563 371.875 569.332 372.633 567.713C373.4 566.084 373.783 564.086 373.783 561.718ZM383.602 576.264V547.173H393.972C396.225 547.173 398.096 547.561 399.582 548.338C401.079 549.114 402.196 550.189 402.935 551.562C403.673 552.926 404.043 554.502 404.043 556.292C404.043 558.072 403.669 559.64 402.92 560.994C402.182 562.338 401.064 563.385 399.568 564.133C398.081 564.881 396.211 565.255 393.957 565.255H386.102V561.477H393.56C394.98 561.477 396.135 561.273 397.026 560.866C397.925 560.459 398.583 559.867 399 559.09C399.417 558.314 399.625 557.381 399.625 556.292C399.625 555.194 399.412 554.242 398.986 553.437C398.569 552.632 397.911 552.017 397.011 551.59C396.121 551.155 394.952 550.937 393.503 550.937H387.991V576.264H383.602ZM397.963 563.139L405.151 576.264H400.151L393.105 563.139H397.963ZM407.949 550.951V547.173H430.463V550.951H421.386V576.264H417.011V550.951H407.949ZM435.438 576.264V547.173H453.478V550.951H439.827V559.815H452.185V563.579H439.827V576.264H435.438ZM484.146 561.718C484.146 564.824 483.577 567.495 482.441 569.73C481.305 571.955 479.747 573.669 477.768 574.872C475.798 576.065 473.558 576.661 471.049 576.661C468.53 576.661 466.281 576.065 464.302 574.872C462.332 573.669 460.779 571.95 459.643 569.715C458.506 567.481 457.938 564.815 457.938 561.718C457.938 558.612 458.506 555.946 459.643 553.721C460.779 551.486 462.332 549.772 464.302 548.579C466.281 547.376 468.53 546.775 471.049 546.775C473.558 546.775 475.798 547.376 477.768 548.579C479.747 549.772 481.305 551.486 482.441 553.721C483.577 555.946 484.146 558.612 484.146 561.718ZM479.799 561.718C479.799 559.351 479.415 557.357 478.648 555.738C477.891 554.109 476.849 552.878 475.523 552.045C474.207 551.202 472.716 550.781 471.049 550.781C469.373 550.781 467.877 551.202 466.56 552.045C465.244 552.878 464.202 554.109 463.435 555.738C462.678 557.357 462.299 559.351 462.299 561.718C462.299 564.086 462.678 566.084 463.435 567.713C464.202 569.332 465.244 570.563 466.56 571.406C467.877 572.239 469.373 572.656 471.049 572.656C472.716 572.656 474.207 572.239 475.523 571.406C476.849 570.563 477.891 569.332 478.648 567.713C479.415 566.084 479.799 564.086 479.799 561.718ZM489.618 576.264V547.173H494.007V572.485H507.189V576.264H489.618ZM516.585 547.173V576.264H512.196V547.173H516.585ZM548.247 561.718C548.247 564.824 547.679 567.495 546.543 569.73C545.406 571.955 543.848 573.669 541.869 574.872C539.9 576.065 537.66 576.661 535.151 576.661C532.632 576.661 530.383 576.065 528.403 574.872C526.434 573.669 524.881 571.95 523.744 569.715C522.608 567.481 522.04 564.815 522.04 561.718C522.04 558.612 522.608 555.946 523.744 553.721C524.881 551.486 526.434 549.772 528.403 548.579C530.383 547.376 532.632 546.775 535.151 546.775C537.66 546.775 539.9 547.376 541.869 548.579C543.848 549.772 545.406 551.486 546.543 553.721C547.679 555.946 548.247 558.612 548.247 561.718ZM543.901 561.718C543.901 559.351 543.517 557.357 542.75 555.738C541.992 554.109 540.951 552.878 539.625 552.045C538.309 551.202 536.817 550.781 535.151 550.781C533.474 550.781 531.978 551.202 530.662 552.045C529.346 552.878 528.304 554.109 527.537 555.738C526.779 557.357 526.401 559.351 526.401 561.718C526.401 564.086 526.779 566.084 527.537 567.713C528.304 569.332 529.346 570.563 530.662 571.406C531.978 572.239 533.474 572.656 535.151 572.656C536.817 572.656 538.309 572.239 539.625 571.406C540.951 570.563 541.992 569.332 542.75 567.713C543.517 566.084 543.901 564.086 543.901 561.718ZM336.692 624.264H327.274V595.173H336.99C339.84 595.173 342.288 595.755 344.334 596.92C346.379 598.075 347.946 599.737 349.036 601.906C350.134 604.065 350.683 606.655 350.683 609.676C350.683 612.706 350.129 615.31 349.021 617.488C347.923 619.666 346.332 621.342 344.249 622.517C342.165 623.681 339.646 624.264 336.692 624.264ZM331.663 620.428H336.45C338.666 620.428 340.508 620.012 341.976 619.178C343.444 618.336 344.542 617.119 345.271 615.528C346 613.927 346.365 611.977 346.365 609.676C346.365 607.393 346 605.457 345.271 603.866C344.552 602.275 343.477 601.068 342.047 600.244C340.617 599.42 338.841 599.008 336.72 599.008H331.663V620.428ZM360.531 595.173V624.264H356.141V595.173H360.531ZM369.465 595.173L377.562 618.866H377.888L385.985 595.173H390.729L380.261 624.264H375.19L364.721 595.173H369.465ZM394.93 624.264V595.173H413.169V598.951H399.32V607.815H412.217V611.579H399.32V620.485H413.339V624.264H394.93ZM419.032 624.264V595.173H429.401C431.655 595.173 433.525 595.561 435.012 596.338C436.508 597.114 437.626 598.189 438.364 599.562C439.103 600.926 439.472 602.502 439.472 604.292C439.472 606.072 439.098 607.64 438.35 608.994C437.612 610.338 436.494 611.385 434.998 612.133C433.511 612.881 431.641 613.255 429.387 613.255H421.532V609.477H428.989C430.41 609.477 431.565 609.273 432.455 608.866C433.355 608.459 434.013 607.867 434.43 607.09C434.846 606.314 435.055 605.381 435.055 604.292C435.055 603.194 434.842 602.242 434.415 601.437C433.999 600.632 433.341 600.017 432.441 599.59C431.551 599.155 430.381 598.937 428.933 598.937H423.421V624.264H419.032ZM433.393 611.139L440.58 624.264H435.58L428.535 611.139H433.393ZM460.68 602.815C460.528 601.47 459.903 600.428 458.805 599.69C457.706 598.942 456.324 598.568 454.657 598.568C453.464 598.568 452.432 598.757 451.56 599.136C450.689 599.505 450.012 600.017 449.529 600.67C449.056 601.314 448.819 602.048 448.819 602.872C448.819 603.563 448.98 604.16 449.302 604.661C449.633 605.163 450.064 605.585 450.594 605.926C451.134 606.257 451.712 606.536 452.327 606.764C452.943 606.981 453.535 607.161 454.103 607.303L456.944 608.042C457.872 608.269 458.824 608.577 459.799 608.965C460.774 609.354 461.679 609.865 462.512 610.499C463.345 611.134 464.018 611.92 464.529 612.857C465.05 613.795 465.31 614.917 465.31 616.224C465.31 617.872 464.884 619.335 464.032 620.613C463.189 621.892 461.963 622.9 460.353 623.639C458.753 624.377 456.816 624.747 454.543 624.747C452.365 624.747 450.481 624.401 448.89 623.71C447.299 623.018 446.054 622.038 445.154 620.769C444.254 619.491 443.757 617.976 443.663 616.224H448.066C448.151 617.275 448.492 618.151 449.089 618.852C449.695 619.543 450.467 620.059 451.404 620.4C452.351 620.731 453.388 620.897 454.515 620.897C455.755 620.897 456.859 620.703 457.825 620.315C458.8 619.917 459.567 619.368 460.126 618.667C460.684 617.957 460.964 617.128 460.964 616.181C460.964 615.32 460.718 614.614 460.225 614.065C459.742 613.516 459.084 613.061 458.251 612.701C457.427 612.341 456.494 612.024 455.452 611.749L452.015 610.812C449.685 610.177 447.839 609.245 446.475 608.014C445.121 606.783 444.444 605.154 444.444 603.127C444.444 601.451 444.898 599.988 445.808 598.738C446.717 597.488 447.948 596.517 449.501 595.826C451.054 595.125 452.806 594.775 454.756 594.775C456.726 594.775 458.464 595.121 459.969 595.812C461.485 596.503 462.678 597.455 463.549 598.667C464.42 599.87 464.875 601.252 464.913 602.815H460.68ZM474.945 595.173V624.264H470.555V595.173H474.945ZM481.337 624.264V595.173H499.376V598.951H485.726V607.815H498.084V611.579H485.726V624.264H481.337ZM509.163 595.173V624.264H504.774V595.173H509.163ZM539.717 604.633H535.286C535.115 603.686 534.798 602.853 534.334 602.133C533.87 601.413 533.302 600.802 532.629 600.301C531.957 599.799 531.204 599.42 530.371 599.164C529.547 598.909 528.671 598.781 527.743 598.781C526.067 598.781 524.566 599.202 523.24 600.045C521.924 600.888 520.882 602.124 520.115 603.752C519.357 605.381 518.979 607.37 518.979 609.718C518.979 612.086 519.357 614.084 520.115 615.713C520.882 617.341 521.929 618.572 523.254 619.406C524.58 620.239 526.071 620.656 527.729 620.656C528.647 620.656 529.518 620.533 530.342 620.286C531.176 620.031 531.929 619.657 532.601 619.164C533.273 618.672 533.841 618.07 534.305 617.36C534.779 616.641 535.106 615.817 535.286 614.889L539.717 614.903C539.481 616.333 539.021 617.649 538.339 618.852C537.667 620.045 536.801 621.077 535.74 621.948C534.689 622.81 533.486 623.478 532.132 623.951C530.778 624.425 529.301 624.661 527.7 624.661C525.181 624.661 522.937 624.065 520.967 622.872C518.998 621.669 517.445 619.95 516.308 617.715C515.181 615.481 514.618 612.815 514.618 609.718C514.618 606.612 515.186 603.946 516.322 601.721C517.459 599.486 519.012 597.772 520.982 596.579C522.951 595.376 525.191 594.775 527.7 594.775C529.244 594.775 530.683 594.998 532.018 595.443C533.363 595.878 534.571 596.522 535.641 597.374C536.711 598.217 537.596 599.249 538.297 600.471C538.998 601.683 539.471 603.07 539.717 604.633ZM547.232 624.264H542.572L553.041 595.173H558.112L568.581 624.264H563.922L555.697 600.457H555.47L547.232 624.264ZM548.013 612.872H563.126V616.565H548.013V612.872ZM567.91 598.951V595.173H590.424V598.951H581.347V624.264H576.972V598.951H567.91ZM599.788 595.173V624.264H595.399V595.173H599.788ZM631.45 609.718C631.45 612.824 630.882 615.495 629.746 617.73C628.609 619.955 627.052 621.669 625.072 622.872C623.103 624.065 620.863 624.661 618.354 624.661C615.835 624.661 613.586 624.065 611.607 622.872C609.637 621.669 608.084 619.95 606.947 617.715C605.811 615.481 605.243 612.815 605.243 609.718C605.243 606.612 605.811 603.946 606.947 601.721C608.084 599.486 609.637 597.772 611.607 596.579C613.586 595.376 615.835 594.775 618.354 594.775C620.863 594.775 623.103 595.376 625.072 596.579C627.052 597.772 628.609 599.486 629.746 601.721C630.882 603.946 631.45 606.612 631.45 609.718ZM627.104 609.718C627.104 607.351 626.72 605.357 625.953 603.738C625.196 602.109 624.154 600.878 622.828 600.045C621.512 599.202 620.02 598.781 618.354 598.781C616.678 598.781 615.181 599.202 613.865 600.045C612.549 600.878 611.507 602.109 610.74 603.738C609.982 605.357 609.604 607.351 609.604 609.718C609.604 612.086 609.982 614.084 610.74 615.713C611.507 617.332 612.549 618.563 613.865 619.406C615.181 620.239 616.678 620.656 618.354 620.656C620.02 620.656 621.512 620.239 622.828 619.406C624.154 618.563 625.196 617.332 625.953 615.713C626.72 614.084 627.104 612.086 627.104 609.718ZM660.403 595.173V624.264H656.369L641.582 602.928H641.312V624.264H636.923V595.173H640.985L655.786 616.536H656.056V595.173H660.403Z" fill="white"/>
<path d="M785.27 417.992V388.901H789.659V401.543H804.162V388.901H808.566V417.992H804.162V405.308H789.659V417.992H785.27ZM819.347 388.901V417.992H814.958V388.901H819.347ZM845.426 398.092C845.152 397.23 844.783 396.458 844.319 395.776C843.864 395.085 843.319 394.498 842.685 394.015C842.051 393.522 841.326 393.148 840.512 392.893C839.707 392.637 838.821 392.509 837.855 392.509C836.217 392.509 834.74 392.931 833.424 393.773C832.107 394.616 831.066 395.852 830.299 397.481C829.541 399.1 829.162 401.084 829.162 403.433C829.162 405.79 829.546 407.784 830.313 409.413C831.08 411.041 832.131 412.277 833.466 413.12C834.801 413.963 836.321 414.384 838.026 414.384C839.607 414.384 840.985 414.062 842.159 413.418C843.343 412.774 844.257 411.865 844.901 410.691C845.554 409.507 845.881 408.115 845.881 406.515L847.017 406.728H838.694V403.106H850.128V406.415C850.128 408.859 849.607 410.98 848.566 412.779C847.533 414.569 846.104 415.951 844.276 416.927C842.458 417.902 840.374 418.39 838.026 418.39C835.393 418.39 833.083 417.784 831.094 416.572C829.115 415.36 827.571 413.641 826.463 411.415C825.355 409.181 824.801 406.529 824.801 403.461C824.801 401.141 825.123 399.058 825.767 397.211C826.411 395.364 827.316 393.797 828.48 392.509C829.655 391.212 831.033 390.222 832.614 389.54C834.205 388.849 835.943 388.504 837.827 388.504C839.399 388.504 840.862 388.736 842.216 389.2C843.58 389.664 844.792 390.322 845.853 391.174C846.923 392.026 847.808 393.04 848.509 394.214C849.21 395.379 849.683 396.671 849.929 398.092H845.426ZM855.7 417.992V388.901H860.089V401.543H874.592V388.901H878.995V417.992H874.592V405.308H860.089V417.992H855.7ZM785.27 465.992V436.901H795.64C797.893 436.901 799.764 437.29 801.25 438.066C802.747 438.843 803.864 439.917 804.603 441.29C805.341 442.654 805.711 444.231 805.711 446.021C805.711 447.801 805.337 449.368 804.588 450.722C803.85 452.067 802.732 453.113 801.236 453.862C799.749 454.61 797.879 454.984 795.625 454.984H787.77V451.205H795.228C796.648 451.205 797.803 451.002 798.694 450.594C799.593 450.187 800.251 449.595 800.668 448.819C801.085 448.042 801.293 447.11 801.293 446.021C801.293 444.922 801.08 443.97 800.654 443.165C800.237 442.361 799.579 441.745 798.679 441.319C797.789 440.883 796.62 440.665 795.171 440.665H789.659V465.992H785.27ZM799.631 452.867L806.819 465.992H801.819L794.773 452.867H799.631ZM811.051 465.992V436.901H829.29V440.68H815.441V449.543H828.338V453.308H815.441V462.214H829.461V465.992H811.051ZM833.718 440.68V436.901H856.233V440.68H847.156V465.992H842.781V440.68H833.718ZM879.915 436.901H884.319V456.035C884.319 458.071 883.84 459.875 882.884 461.447C881.927 463.009 880.583 464.24 878.85 465.14C877.117 466.03 875.086 466.475 872.756 466.475C870.436 466.475 868.409 466.03 866.676 465.14C864.944 464.24 863.599 463.009 862.642 461.447C861.686 459.875 861.208 458.071 861.208 456.035V436.901H865.597V455.68C865.597 456.996 865.886 458.165 866.463 459.188C867.051 460.211 867.879 461.016 868.949 461.603C870.019 462.181 871.288 462.469 872.756 462.469C874.233 462.469 875.507 462.181 876.577 461.603C877.657 461.016 878.48 460.211 879.049 459.188C879.626 458.165 879.915 456.996 879.915 455.68V436.901ZM890.7 465.992V436.901H901.069C903.323 436.901 905.193 437.29 906.68 438.066C908.176 438.843 909.294 439.917 910.032 441.29C910.771 442.654 911.14 444.231 911.14 446.021C911.14 447.801 910.766 449.368 910.018 450.722C909.279 452.067 908.162 453.113 906.666 453.862C905.179 454.61 903.309 454.984 901.055 454.984H893.2V451.205H900.657C902.078 451.205 903.233 451.002 904.123 450.594C905.023 450.187 905.681 449.595 906.098 448.819C906.514 448.042 906.723 447.11 906.723 446.021C906.723 444.922 906.51 443.97 906.083 443.165C905.667 442.361 905.009 441.745 904.109 441.319C903.219 440.883 902.049 440.665 900.6 440.665H895.089V465.992H890.7ZM905.061 452.867L912.248 465.992H907.248L900.203 452.867H905.061ZM939.961 436.901V465.992H935.927L921.14 444.657H920.87V465.992H916.481V436.901H920.544L935.345 458.265H935.615V436.901H939.961ZM962.23 444.543C962.079 443.199 961.454 442.157 960.355 441.418C959.257 440.67 957.874 440.296 956.208 440.296C955.015 440.296 953.982 440.486 953.111 440.864C952.24 441.234 951.563 441.745 951.08 442.398C950.606 443.042 950.37 443.776 950.37 444.6C950.37 445.291 950.531 445.888 950.853 446.39C951.184 446.892 951.615 447.313 952.145 447.654C952.685 447.986 953.263 448.265 953.878 448.492C954.494 448.71 955.086 448.89 955.654 449.032L958.495 449.771C959.423 449.998 960.374 450.306 961.35 450.694C962.325 451.082 963.23 451.594 964.063 452.228C964.896 452.862 965.569 453.648 966.08 454.586C966.601 455.523 966.861 456.646 966.861 457.952C966.861 459.6 966.435 461.063 965.583 462.342C964.74 463.62 963.514 464.629 961.904 465.367C960.303 466.106 958.367 466.475 956.094 466.475C953.916 466.475 952.032 466.129 950.441 465.438C948.85 464.747 947.605 463.767 946.705 462.498C945.805 461.219 945.308 459.704 945.213 457.952H949.617C949.702 459.004 950.043 459.879 950.64 460.58C951.246 461.272 952.017 461.788 952.955 462.129C953.902 462.46 954.939 462.626 956.066 462.626C957.306 462.626 958.409 462.432 959.375 462.043C960.351 461.646 961.118 461.096 961.676 460.396C962.235 459.685 962.515 458.857 962.515 457.91C962.515 457.048 962.268 456.343 961.776 455.793C961.293 455.244 960.635 454.79 959.801 454.43C958.978 454.07 958.045 453.753 957.003 453.478L953.566 452.54C951.236 451.906 949.39 450.973 948.026 449.742C946.672 448.511 945.995 446.882 945.995 444.856C945.995 443.18 946.449 441.717 947.358 440.467C948.267 439.217 949.498 438.246 951.051 437.555C952.605 436.854 954.356 436.504 956.307 436.504C958.277 436.504 960.015 436.849 961.52 437.54C963.035 438.232 964.229 439.183 965.1 440.396C965.971 441.598 966.426 442.981 966.463 444.543H962.23Z" fill="white"/>
<g filter="url(#filter1_d_9673_22041)">
<path d="M487.705 958.777C483.472 960.745 478.537 960.473 474.545 958.052L373.022 896.48C368.837 893.942 366.281 889.404 366.281 884.509L366.283 783.39L599.789 780.768L595.316 900.355C595.12 905.61 591.995 910.311 587.226 912.527L487.705 958.777Z" fill="url(#paint4_linear_9673_22041)"/>
<path d="M475.542 853.594L373.784 796.112C364.32 790.766 364.732 776.999 374.498 772.228L476.717 722.289C480.299 720.539 484.472 720.461 488.117 722.078L591.388 767.889C601.409 772.334 602.233 786.238 592.807 791.836L489.076 853.447C484.917 855.917 479.754 855.973 475.542 853.594Z" fill="#6436E5" stroke="#5429CC"/>
<path d="M487.626 833.653C484.427 835.549 480.455 835.589 477.212 833.757L401.673 791.075C394.388 786.959 394.696 776.375 402.207 772.713L478.018 735.756C480.774 734.412 483.984 734.356 486.79 735.601L566.682 772.664C574.395 776.088 575.039 786.778 567.79 791.076L487.626 833.653Z" fill="#1F0583"/>
<path d="M484.951 811.403C482.112 812.722 478.803 812.539 476.127 810.916L408.059 769.634C405.253 767.933 403.54 764.89 403.54 761.608L403.541 729.842L560.789 728.768L557.1 772.232C556.969 775.755 554.874 778.908 551.676 780.393L484.951 811.403Z" fill="url(#paint5_linear_9673_22041)"/>
<path d="M485.743 688.662L556.538 719.602C556.539 719.602 556.539 719.602 556.54 719.602C563.096 722.514 563.64 731.597 557.484 735.249C557.483 735.249 557.483 735.25 557.482 735.25L486.44 776.593L486.436 776.595C483.718 778.207 480.341 778.241 477.585 776.684L409.02 737.942C402.826 734.443 403.091 725.448 409.472 722.337L478.284 688.792C480.626 687.65 483.355 687.602 485.74 688.661L485.743 688.662Z" fill="url(#paint6_linear_9673_22041)" stroke="#FCFCFC" stroke-width="1.2"/>
<path d="M487.784 770.347C483.653 772.801 478.525 772.857 474.341 770.493L413.704 736.24C409.004 733.585 409.208 726.748 414.059 724.378L476.615 693.817C479.461 692.426 482.777 692.365 485.673 693.649L552.938 721.713C557.915 723.921 558.324 730.826 553.643 733.607L487.784 770.347Z" fill="#6436E5"/>
<path d="M393.133 827.509L446.164 856.951C448.546 858.274 450.023 860.784 450.023 863.508L450.023 912.656C450.023 918.488 443.657 922.089 438.658 919.083L384.88 886.748C382.587 885.369 381.202 882.874 381.246 880.199L381.993 833.945C382.085 828.281 388.181 824.76 393.133 827.509Z" fill="#6436E5" stroke="#5429CC"/>
</g>
<path d="M399.08 878.576L401.061 874.647L421.166 863.817L426.989 866.752L418.779 883.04L421.922 884.624L419.726 888.982L416.583 887.398L414.026 892.47L409.026 889.949L411.582 884.877L399.08 878.576ZM419.609 869.751L406.777 876.991L414.1 880.681L419.609 869.751Z" fill="white"/>
<path d="M659.932 821.772H655.5C655.33 820.825 655.013 819.991 654.549 819.272C654.085 818.552 653.516 817.941 652.844 817.439C652.172 816.937 651.419 816.559 650.586 816.303C649.762 816.047 648.886 815.919 647.958 815.919C646.282 815.919 644.781 816.341 643.455 817.184C642.139 818.026 641.097 819.262 640.33 820.891C639.572 822.52 639.194 824.508 639.194 826.857C639.194 829.224 639.572 831.222 640.33 832.851C641.097 834.48 642.143 835.711 643.469 836.544C644.795 837.378 646.286 837.794 647.944 837.794C648.862 837.794 649.733 837.671 650.557 837.425C651.391 837.169 652.143 836.795 652.816 836.303C653.488 835.81 654.056 835.209 654.52 834.499C654.994 833.779 655.32 832.955 655.5 832.027L659.932 832.042C659.695 833.471 659.236 834.788 658.554 835.99C657.882 837.184 657.016 838.216 655.955 839.087C654.904 839.949 653.701 840.616 652.347 841.09C650.993 841.563 649.516 841.8 647.915 841.8C645.396 841.8 643.152 841.203 641.182 840.01C639.212 838.808 637.659 837.089 636.523 834.854C635.396 832.619 634.833 829.953 634.833 826.857C634.833 823.751 635.401 821.085 636.537 818.86C637.674 816.625 639.227 814.911 641.196 813.718C643.166 812.515 645.406 811.914 647.915 811.914C649.459 811.914 650.898 812.136 652.233 812.581C653.578 813.017 654.785 813.661 655.855 814.513C656.926 815.356 657.811 816.388 658.512 817.61C659.212 818.822 659.686 820.209 659.932 821.772ZM667.446 841.402H662.787L673.256 812.311H678.327L688.796 841.402H684.137L675.912 817.596H675.685L667.446 841.402ZM668.228 830.01H683.341V833.703H668.228V830.01ZM692.997 841.402V812.311H703.366C705.629 812.311 707.504 812.723 708.991 813.547C710.478 814.371 711.591 815.498 712.329 816.928C713.068 818.348 713.437 819.949 713.437 821.729C713.437 823.519 713.063 825.129 712.315 826.559C711.576 827.979 710.459 829.106 708.963 829.939C707.476 830.763 705.606 831.175 703.352 831.175H696.221V827.453H702.954C704.384 827.453 705.544 827.207 706.434 826.715C707.324 826.213 707.978 825.531 708.395 824.669C708.811 823.808 709.02 822.828 709.02 821.729C709.02 820.631 708.811 819.655 708.395 818.803C707.978 817.951 707.32 817.283 706.42 816.8C705.53 816.317 704.356 816.076 702.897 816.076H697.386V841.402H692.997ZM722.972 812.311V841.402H718.583V812.311H722.972ZM727.929 816.09V812.311H750.444V816.09H741.367V841.402H736.992V816.09H727.929ZM754.439 841.402H749.779L760.248 812.311H765.319L775.788 841.402H771.129L762.904 817.596H762.677L754.439 841.402ZM755.22 830.01H770.333V833.703H755.22V830.01ZM779.989 841.402V812.311H784.378V837.624H797.56V841.402H779.989ZM638.228 889.402H633.569L644.037 860.311H649.108L659.577 889.402H654.918L646.694 865.596H646.466L638.228 889.402ZM639.009 878.01H654.123V881.703H639.009V878.01ZM663.778 889.402V860.311H674.147C676.411 860.311 678.286 860.723 679.772 861.547C681.259 862.371 682.372 863.498 683.11 864.928C683.849 866.348 684.218 867.949 684.218 869.729C684.218 871.519 683.844 873.129 683.096 874.559C682.358 875.979 681.24 877.106 679.744 877.939C678.257 878.763 676.387 879.175 674.133 879.175H667.002V875.453H673.735C675.165 875.453 676.325 875.207 677.216 874.715C678.106 874.213 678.759 873.531 679.176 872.669C679.592 871.808 679.801 870.828 679.801 869.729C679.801 868.631 679.592 867.655 679.176 866.803C678.759 865.951 678.101 865.283 677.201 864.8C676.311 864.317 675.137 864.076 673.679 864.076H668.167V889.402H663.778ZM689.364 889.402V860.311H699.733C701.997 860.311 703.872 860.723 705.358 861.547C706.845 862.371 707.958 863.498 708.696 864.928C709.435 866.348 709.804 867.949 709.804 869.729C709.804 871.519 709.43 873.129 708.682 874.559C707.944 875.979 706.826 877.106 705.33 877.939C703.843 878.763 701.973 879.175 699.719 879.175H692.588V875.453H699.321C700.751 875.453 701.911 875.207 702.801 874.715C703.692 874.213 704.345 873.531 704.762 872.669C705.178 871.808 705.387 870.828 705.387 869.729C705.387 868.631 705.178 867.655 704.762 866.803C704.345 865.951 703.687 865.283 702.787 864.8C701.897 864.317 700.723 864.076 699.265 864.076H693.753V889.402H689.364ZM714.95 889.402V860.311H725.319C727.573 860.311 729.443 860.7 730.93 861.476C732.426 862.253 733.544 863.328 734.282 864.701C735.021 866.064 735.39 867.641 735.39 869.431C735.39 871.211 735.016 872.778 734.268 874.132C733.529 875.477 732.412 876.524 730.916 877.272C729.429 878.02 727.559 878.394 725.305 878.394H717.45V874.615H724.907C726.328 874.615 727.483 874.412 728.373 874.005C729.273 873.597 729.931 873.006 730.348 872.229C730.764 871.453 730.973 870.52 730.973 869.431C730.973 868.332 730.76 867.381 730.333 866.576C729.917 865.771 729.259 865.155 728.359 864.729C727.469 864.293 726.299 864.076 724.85 864.076H719.339V889.402H714.95ZM729.311 876.277L736.498 889.402H731.498L724.453 876.277H729.311ZM740.731 889.402V860.311H758.97V864.09H745.12V872.953H758.018V876.718H745.12V885.624H759.14V889.402H740.731ZM788.995 869.772H784.563C784.392 868.825 784.075 867.991 783.611 867.272C783.147 866.552 782.579 865.941 781.907 865.439C781.234 864.937 780.481 864.559 779.648 864.303C778.824 864.047 777.948 863.919 777.02 863.919C775.344 863.919 773.843 864.341 772.517 865.184C771.201 866.026 770.159 867.262 769.392 868.891C768.635 870.52 768.256 872.508 768.256 874.857C768.256 877.224 768.635 879.222 769.392 880.851C770.159 882.48 771.206 883.711 772.532 884.544C773.857 885.378 775.349 885.794 777.006 885.794C777.925 885.794 778.796 885.671 779.62 885.425C780.453 885.169 781.206 884.795 781.878 884.303C782.551 883.81 783.119 883.209 783.583 882.499C784.056 881.779 784.383 880.955 784.563 880.027L788.995 880.042C788.758 881.471 788.299 882.788 787.617 883.99C786.944 885.184 786.078 886.216 785.017 887.087C783.966 887.949 782.764 888.616 781.409 889.09C780.055 889.563 778.578 889.8 776.978 889.8C774.459 889.8 772.214 889.203 770.245 888.01C768.275 886.808 766.722 885.089 765.586 882.854C764.459 880.619 763.895 877.953 763.895 874.857C763.895 871.751 764.463 869.085 765.6 866.86C766.736 864.625 768.289 862.911 770.259 861.718C772.229 860.515 774.468 859.914 776.978 859.914C778.521 859.914 779.961 860.136 781.296 860.581C782.641 861.017 783.848 861.661 784.918 862.513C785.988 863.356 786.873 864.388 787.574 865.61C788.275 866.822 788.748 868.209 788.995 869.772ZM798.636 860.311V889.402H794.247V860.311H798.636ZM807.485 889.402H802.826L813.295 860.311H818.366L828.835 889.402H824.176L815.951 865.596H815.724L807.485 889.402ZM808.267 878.01H823.38V881.703H808.267V878.01ZM828.164 864.09V860.311H850.678V864.09H841.601V889.402H837.226V864.09H828.164ZM860.042 860.311V889.402H855.653V860.311H860.042ZM891.704 874.857C891.704 877.963 891.136 880.633 890 882.868C888.863 885.094 887.306 886.808 885.326 888.01C883.357 889.203 881.117 889.8 878.608 889.8C876.089 889.8 873.84 889.203 871.86 888.01C869.891 886.808 868.338 885.089 867.201 882.854C866.065 880.619 865.497 877.953 865.497 874.857C865.497 871.751 866.065 869.085 867.201 866.86C868.338 864.625 869.891 862.911 871.86 861.718C873.84 860.515 876.089 859.914 878.608 859.914C881.117 859.914 883.357 860.515 885.326 861.718C887.306 862.911 888.863 864.625 890 866.86C891.136 869.085 891.704 871.751 891.704 874.857ZM887.358 874.857C887.358 872.489 886.974 870.496 886.207 868.877C885.449 867.248 884.408 866.017 883.082 865.184C881.766 864.341 880.274 863.919 878.608 863.919C876.931 863.919 875.435 864.341 874.119 865.184C872.803 866.017 871.761 867.248 870.994 868.877C870.236 870.496 869.858 872.489 869.858 874.857C869.858 877.224 870.236 879.222 870.994 880.851C871.761 882.471 872.803 883.702 874.119 884.544C875.435 885.378 876.931 885.794 878.608 885.794C880.274 885.794 881.766 885.378 883.082 884.544C884.408 883.702 885.449 882.471 886.207 880.851C886.974 879.222 887.358 877.224 887.358 874.857ZM920.657 860.311V889.402H916.623L901.836 868.067H901.566V889.402H897.176V860.311H901.239L916.04 881.675H916.31V860.311H920.657Z" fill="white"/>
<g filter="url(#filter2_d_9673_22041)">
<path d="M655.545 553.477C651.312 555.444 646.376 555.172 642.385 552.751L540.861 491.18C536.677 488.642 534.121 484.103 534.121 479.209L534.123 378.089L767.629 375.467L763.156 495.054C762.96 500.309 759.835 505.01 755.066 507.227L655.545 553.477Z" fill="url(#paint7_linear_9673_22041)"/>
<path d="M643.382 448.293L541.624 390.811C532.16 385.465 532.572 371.698 542.338 366.927L644.557 316.988C648.139 315.238 652.312 315.161 655.957 316.777L759.228 362.588C769.248 367.033 770.073 380.937 760.647 386.535L656.916 448.146C652.757 450.616 647.594 450.672 643.382 448.293Z" fill="#52EEE5" stroke="#0CD2C7"/>
<path d="M655.466 428.352C652.267 430.249 648.294 430.288 645.052 428.456L569.513 385.775C562.228 381.658 562.535 371.074 570.047 367.412L645.858 330.455C648.613 329.112 651.824 329.055 654.63 330.301L734.522 367.363C742.235 370.787 742.879 381.478 735.63 385.775L655.466 428.352Z" fill="#29877E"/>
<path d="M652.79 406.102C649.952 407.421 646.643 407.238 643.967 405.615L575.899 364.334C573.093 362.632 571.38 359.589 571.38 356.308L571.381 324.541L728.629 323.467L724.94 366.931C724.808 370.455 722.713 373.607 719.516 375.093L652.79 406.102Z" fill="url(#paint8_linear_9673_22041)"/>
<path d="M653.583 283.361L724.378 314.301C724.379 314.301 724.379 314.301 724.38 314.302C730.936 317.214 731.479 326.296 725.324 329.948C725.323 329.948 725.323 329.949 725.322 329.949L654.28 371.292L654.276 371.295C651.558 372.906 648.181 372.94 645.425 371.383L576.86 332.642C570.666 329.142 570.93 320.147 577.312 317.036L646.124 283.491C648.466 282.349 651.195 282.301 653.58 283.36L653.583 283.361Z" fill="url(#paint9_linear_9673_22041)" stroke="#FCFCFC" stroke-width="1.2"/>
<path d="M655.624 365.046C651.493 367.5 646.365 367.556 642.181 365.193L581.544 330.939C576.844 328.284 577.048 321.447 581.898 319.077L644.454 288.516C647.301 287.125 650.617 287.064 653.513 288.349L720.778 316.412C725.754 318.62 726.164 325.525 721.483 328.306L655.624 365.046Z" fill="#52EEE5"/>
<path d="M560.973 422.208L614.003 451.65C616.385 452.973 617.863 455.483 617.863 458.208L617.863 507.355C617.863 513.188 611.497 516.788 606.498 513.782L552.72 481.447C550.427 480.069 549.042 477.573 549.085 474.898L549.833 428.644C549.925 422.981 556.021 419.459 560.973 422.208Z" fill="#52EEE5" stroke="#0CD2C7"/>
</g>
<path d="M570.753 471.386C573.999 470.634 576.619 469.968 578.612 469.39C580.618 468.788 582.421 468.025 584.022 467.1C585.623 466.175 586.759 465.046 587.432 463.712C588.044 462.498 588.238 461.401 588.015 460.422C587.791 459.444 587.084 458.654 585.893 458.054C584.703 457.454 583.582 457.397 582.531 457.883C581.492 458.344 580.612 459.26 579.892 460.629L575.035 458.18C576.57 455.371 578.508 453.63 580.847 452.958C583.211 452.298 585.631 452.592 588.107 453.84C590.822 455.208 592.54 456.985 593.26 459.169C593.992 461.33 593.765 463.589 592.576 465.947C591.64 467.804 590.246 469.326 588.394 470.513C586.541 471.7 584.654 472.6 582.732 473.214C580.822 473.804 578.387 474.458 575.427 475.176L585.964 480.487L583.876 484.63L566.231 475.737L568.103 472.022L570.753 471.386Z" fill="white"/>
<g filter="url(#filter3_d_9673_22041)">
<path d="M187.92 710.258C183.687 712.225 178.751 711.953 174.76 709.532L73.2364 647.961C69.0518 645.423 66.4962 640.884 66.4963 635.99L66.4981 534.87L300.004 532.248L295.531 651.835C295.335 657.09 292.21 661.792 287.441 664.008L187.92 710.258Z" fill="url(#paint10_linear_9673_22041)"/>
<path d="M175.757 605.074L73.9988 547.592C64.5353 542.246 64.9467 528.479 74.7127 523.708L176.932 473.769C180.514 472.019 184.687 471.942 188.332 473.559L291.603 519.369C301.623 523.814 302.448 537.718 293.022 543.317L189.291 604.927C185.132 607.397 179.969 607.453 175.757 605.074Z" fill="#42A0F2" stroke="#378CD6"/>
<path d="M187.841 585.133C184.642 587.03 180.669 587.07 177.427 585.237L101.888 542.556C94.603 538.44 94.9104 527.855 102.422 524.194L178.233 487.236C180.988 485.893 184.199 485.836 187.005 487.082L266.897 524.144C274.61 527.568 275.254 538.259 268.005 542.557L187.841 585.133Z" fill="#1D5E94"/>
<path d="M185.165 562.883C182.327 564.202 179.018 564.02 176.342 562.397L108.274 521.115C105.468 519.413 103.755 516.37 103.755 513.089L103.756 481.322L261.004 480.248L257.315 523.713C257.183 527.236 255.088 530.388 251.891 531.874L185.165 562.883Z" fill="url(#paint11_linear_9673_22041)"/>
<path d="M185.958 440.142L256.753 471.082C256.754 471.082 256.754 471.083 256.755 471.083C263.311 473.995 263.854 483.078 257.699 486.729C257.698 486.73 257.698 486.73 257.697 486.73L186.655 528.073L186.651 528.076C183.933 529.688 180.556 529.722 177.8 528.164L109.235 489.423C103.041 485.923 103.305 476.928 109.687 473.817L178.499 440.272C180.841 439.13 183.57 439.082 185.955 440.141L185.958 440.142Z" fill="url(#paint12_linear_9673_22041)" stroke="#FCFCFC" stroke-width="1.2"/>
<path d="M187.999 521.828C183.868 524.281 178.74 524.337 174.556 521.974L113.919 487.72C109.219 485.065 109.423 478.228 114.273 475.859L176.829 445.297C179.676 443.906 182.992 443.845 185.888 445.13L253.153 473.194C258.129 475.401 258.539 482.307 253.858 485.087L187.999 521.828Z" fill="#42A0F2"/>
<path d="M93.3478 578.989L146.378 608.432C148.76 609.754 150.238 612.264 150.238 614.989L150.238 664.136C150.238 669.969 143.872 673.569 138.873 670.564L85.0947 638.228C82.802 636.85 81.4172 634.354 81.4604 631.68L82.2083 585.425C82.2998 579.762 88.3956 576.24 93.3478 578.989Z" fill="#42A0F2" stroke="#378CD6"/>
</g>
<path d="M108.461 613.879C109.78 611.558 111.538 610.144 113.734 609.639C115.966 609.121 118.356 609.504 120.904 610.789C122.642 611.665 123.974 612.724 124.9 613.968C125.839 615.187 126.353 616.477 126.444 617.837C126.571 619.185 126.305 620.514 125.644 621.823C124.888 623.323 123.853 624.399 122.539 625.051C121.261 625.691 119.996 625.919 118.745 625.737L118.673 625.879C119.838 627.004 120.525 628.306 120.735 629.786C120.969 631.277 120.654 632.88 119.79 634.595C119.069 636.024 118.094 637.13 116.863 637.913C115.656 638.708 114.248 639.103 112.638 639.098C111.063 639.081 109.383 638.622 107.597 637.722C104.907 636.366 103.058 634.583 102.051 632.373C101.045 630.164 101.16 627.713 102.397 625.022L107.255 627.471C106.714 628.661 106.633 629.8 107.011 630.887C107.425 631.961 108.287 632.829 109.597 633.489C110.811 634.101 111.908 634.236 112.887 633.893C113.902 633.538 114.679 632.825 115.219 631.754C115.939 630.325 116.003 629.073 115.41 627.998C114.817 626.922 113.568 625.905 111.663 624.945L110.628 624.422L112.698 620.315L113.734 620.837C117.115 622.541 119.376 622.262 120.516 620C121.032 618.976 121.125 618.022 120.794 617.139C120.487 616.267 119.761 615.543 118.618 614.967C117.499 614.403 116.474 614.275 115.543 614.582C114.647 614.877 113.918 615.465 113.355 616.346L108.461 613.879Z" fill="white"/>
</g>
<defs>
<filter id="filter0_d_9673_22041" x="137.227" y="68.0828" width="279.233" height="318.383" filterUnits="userSpaceOnUse" color-interpolation-filters="sRGB">
<feFlood flood-opacity="0" result="BackgroundImageFix"/>
<feColorMatrix in="SourceAlpha" type="matrix" values="0 0 0 0 0 0 0 0 0 0 0 0 0 0 0 0 0 0 127 0" result="hardAlpha"/>
<feOffset dx="10" dy="4"/>
<feGaussianBlur stdDeviation="11.4"/>
<feComposite in2="hardAlpha" operator="out"/>
<feColorMatrix type="matrix" values="0 0 0 0 0 0 0 0 0 0 0 0 0 0 0 0 0 0 0.2 0"/>
<feBlend mode="normal" in2="BackgroundImageFix" result="effect1_dropShadow_9673_22041"/>
<feBlend mode="normal" in="SourceGraphic" in2="effect1_dropShadow_9673_22041" result="shape"/>
</filter>
<filter id="filter1_d_9673_22041" x="353.481" y="668.499" width="279.233" height="318.383" filterUnits="userSpaceOnUse" color-interpolation-filters="sRGB">
<feFlood flood-opacity="0" result="BackgroundImageFix"/>
<feColorMatrix in="SourceAlpha" type="matrix" values="0 0 0 0 0 0 0 0 0 0 0 0 0 0 0 0 0 0 127 0" result="hardAlpha"/>
<feOffset dx="10" dy="4"/>
<feGaussianBlur stdDeviation="11.4"/>
<feComposite in2="hardAlpha" operator="out"/>
<feColorMatrix type="matrix" values="0 0 0 0 0 0 0 0 0 0 0 0 0 0 0 0 0 0 0.2 0"/>
<feBlend mode="normal" in2="BackgroundImageFix" result="effect1_dropShadow_9673_22041"/>
<feBlend mode="normal" in="SourceGraphic" in2="effect1_dropShadow_9673_22041" result="shape"/>
</filter>
<filter id="filter2_d_9673_22041" x="521.321" y="263.198" width="279.233" height="318.383" filterUnits="userSpaceOnUse" color-interpolation-filters="sRGB">
<feFlood flood-opacity="0" result="BackgroundImageFix"/>
<feColorMatrix in="SourceAlpha" type="matrix" values="0 0 0 0 0 0 0 0 0 0 0 0 0 0 0 0 0 0 127 0" result="hardAlpha"/>
<feOffset dx="10" dy="4"/>
<feGaussianBlur stdDeviation="11.4"/>
<feComposite in2="hardAlpha" operator="out"/>
<feColorMatrix type="matrix" values="0 0 0 0 0 0 0 0 0 0 0 0 0 0 0 0 0 0 0.2 0"/>
<feBlend mode="normal" in2="BackgroundImageFix" result="effect1_dropShadow_9673_22041"/>
<feBlend mode="normal" in="SourceGraphic" in2="effect1_dropShadow_9673_22041" result="shape"/>
</filter>
<filter id="filter3_d_9673_22041" x="53.6961" y="419.979" width="279.233" height="318.383" filterUnits="userSpaceOnUse" color-interpolation-filters="sRGB">
<feFlood flood-opacity="0" result="BackgroundImageFix"/>
<feColorMatrix in="SourceAlpha" type="matrix" values="0 0 0 0 0 0 0 0 0 0 0 0 0 0 0 0 0 0 127 0" result="hardAlpha"/>
<feOffset dx="10" dy="4"/>
<feGaussianBlur stdDeviation="11.4"/>
<feComposite in2="hardAlpha" operator="out"/>
<feColorMatrix type="matrix" values="0 0 0 0 0 0 0 0 0 0 0 0 0 0 0 0 0 0 0.2 0"/>
<feBlend mode="normal" in2="BackgroundImageFix" result="effect1_dropShadow_9673_22041"/>
<feBlend mode="normal" in="SourceGraphic" in2="effect1_dropShadow_9673_22041" result="shape"/>
</filter>
<radialGradient id="paint0_radial_9673_22041" cx="0" cy="0" r="1" gradientUnits="userSpaceOnUse" gradientTransform="translate(512 512) rotate(90) scale(775.989)">
<stop stop-color="#37ACD0"/>
<stop offset="1" stop-color="#040F56"/>
</radialGradient>
<linearGradient id="paint1_linear_9673_22041" x1="141.707" y1="242.512" x2="384.707" y2="243.512" gradientUnits="userSpaceOnUse">
<stop stop-color="#FDFDFD"/>
<stop offset="0.442507" stop-color="#E6E6E6"/>
<stop offset="0.493196" stop-color="#F0F0F0"/>
<stop offset="0.53499" stop-color="#F0F0F0"/>
<stop offset="0.577136" stop-color="#E3E3E3"/>
<stop offset="1" stop-color="#B7B7B7"/>
</linearGradient>
<linearGradient id="paint2_linear_9673_22041" x1="181.707" y1="169.344" x2="344.631" y2="170.015" gradientUnits="userSpaceOnUse">
<stop stop-color="#FDFDFD"/>
<stop offset="0.442507" stop-color="#E6E6E6"/>
<stop offset="0.493196" stop-color="#F0F0F0"/>
<stop offset="0.53499" stop-color="#F0F0F0"/>
<stop offset="0.577136" stop-color="#E3E3E3"/>
<stop offset="1" stop-color="#B7B7B7"/>
</linearGradient>
<linearGradient id="paint3_linear_9673_22041" x1="319.535" y1="112.586" x2="204.535" y2="153.586" gradientUnits="userSpaceOnUse">
<stop stop-color="#EBEBEB"/>
<stop offset="0.759056" stop-color="white"/>
</linearGradient>
<linearGradient id="paint4_linear_9673_22041" x1="357.961" y1="842.928" x2="600.961" y2="843.928" gradientUnits="userSpaceOnUse">
<stop stop-color="#FDFDFD"/>
<stop offset="0.442507" stop-color="#E6E6E6"/>
<stop offset="0.493196" stop-color="#F0F0F0"/>
<stop offset="0.53499" stop-color="#F0F0F0"/>
<stop offset="0.577136" stop-color="#E3E3E3"/>
<stop offset="1" stop-color="#B7B7B7"/>
</linearGradient>
<linearGradient id="paint5_linear_9673_22041" x1="397.961" y1="769.76" x2="560.885" y2="770.431" gradientUnits="userSpaceOnUse">
<stop stop-color="#FDFDFD"/>
<stop offset="0.442507" stop-color="#E6E6E6"/>
<stop offset="0.493196" stop-color="#F0F0F0"/>
<stop offset="0.53499" stop-color="#F0F0F0"/>
<stop offset="0.577136" stop-color="#E3E3E3"/>
<stop offset="1" stop-color="#B7B7B7"/>
</linearGradient>
<linearGradient id="paint6_linear_9673_22041" x1="535.789" y1="713.002" x2="420.789" y2="754.002" gradientUnits="userSpaceOnUse">
<stop stop-color="#EBEBEB"/>
<stop offset="0.759056" stop-color="white"/>
</linearGradient>
<linearGradient id="paint7_linear_9673_22041" x1="525.801" y1="437.627" x2="768.801" y2="438.627" gradientUnits="userSpaceOnUse">
<stop stop-color="#FDFDFD"/>
<stop offset="0.442507" stop-color="#E6E6E6"/>
<stop offset="0.493196" stop-color="#F0F0F0"/>
<stop offset="0.53499" stop-color="#F0F0F0"/>
<stop offset="0.577136" stop-color="#E3E3E3"/>
<stop offset="1" stop-color="#B7B7B7"/>
</linearGradient>
<linearGradient id="paint8_linear_9673_22041" x1="565.801" y1="364.459" x2="728.725" y2="365.13" gradientUnits="userSpaceOnUse">
<stop stop-color="#FDFDFD"/>
<stop offset="0.442507" stop-color="#E6E6E6"/>
<stop offset="0.493196" stop-color="#F0F0F0"/>
<stop offset="0.53499" stop-color="#F0F0F0"/>
<stop offset="0.577136" stop-color="#E3E3E3"/>
<stop offset="1" stop-color="#B7B7B7"/>
</linearGradient>
<linearGradient id="paint9_linear_9673_22041" x1="703.629" y1="307.701" x2="588.629" y2="348.701" gradientUnits="userSpaceOnUse">
<stop stop-color="#EBEBEB"/>
<stop offset="0.759056" stop-color="white"/>
</linearGradient>
<linearGradient id="paint10_linear_9673_22041" x1="58.1758" y1="594.408" x2="301.176" y2="595.408" gradientUnits="userSpaceOnUse">
<stop stop-color="#FDFDFD"/>
<stop offset="0.442507" stop-color="#E6E6E6"/>
<stop offset="0.493196" stop-color="#F0F0F0"/>
<stop offset="0.53499" stop-color="#F0F0F0"/>
<stop offset="0.577136" stop-color="#E3E3E3"/>
<stop offset="1" stop-color="#B7B7B7"/>
</linearGradient>
<linearGradient id="paint11_linear_9673_22041" x1="98.176" y1="521.241" x2="261.1" y2="521.911" gradientUnits="userSpaceOnUse">
<stop stop-color="#FDFDFD"/>
<stop offset="0.442507" stop-color="#E6E6E6"/>
<stop offset="0.493196" stop-color="#F0F0F0"/>
<stop offset="0.53499" stop-color="#F0F0F0"/>
<stop offset="0.577136" stop-color="#E3E3E3"/>
<stop offset="1" stop-color="#B7B7B7"/>
</linearGradient>
<linearGradient id="paint12_linear_9673_22041" x1="236.004" y1="464.482" x2="121.004" y2="505.482" gradientUnits="userSpaceOnUse">
<stop stop-color="#EBEBEB"/>
<stop offset="0.759056" stop-color="white"/>
</linearGradient>
<clipPath id="clip0_9673_22041">
<rect width="1024" height="1024" fill="white"/>
</clipPath>
</defs>
</svg>
